<svg width="24" height="24" viewBox="0 0 24 24" xmlns="http://www.w3.org/2000/svg">
<path fill-rule="evenodd" clip-rule="evenodd" d="M7.74242 1.5H16.258C17.0488 1.49997 17.7309 1.49995 18.2928 1.54586C18.8858 1.59431 19.4756 1.70128 20.0432 1.99047C20.8899 2.4219 21.5783 3.11032 22.0098 3.95705C22.299 4.52461 22.4059 5.11444 22.4544 5.70746C22.5003 6.26931 22.5003 6.95144 22.5002 7.74215V13.2579C22.5003 14.0486 22.5003 14.7307 22.4544 15.2925C22.4059 15.8856 22.299 16.4754 22.0098 17.043C21.5783 17.8897 20.8899 18.5781 20.0432 19.0095C19.4756 19.2987 18.8858 19.4057 18.2928 19.4541C17.7309 19.5001 17.0488 19.5 16.2581 19.5H13.684C12.9998 19.5 12.8658 19.5071 12.751 19.5306C12.6186 19.5578 12.4905 19.6027 12.3701 19.6642C12.2658 19.7175 12.1567 19.7958 11.6225 20.2231L9.23703 22.1315C9.22581 22.1405 9.21446 22.1496 9.20299 22.1587C9.02584 22.3006 8.82168 22.464 8.63725 22.586C8.46406 22.7005 8.05409 22.9591 7.50239 22.9597C6.89331 22.9603 6.31712 22.6834 5.93715 22.2074C5.59297 21.7762 5.53882 21.2945 5.52004 21.0878C5.50004 20.8676 5.50014 20.606 5.50022 20.3791C5.50023 20.3644 5.50023 20.3499 5.50023 20.3355V19.4616C5.26739 19.4389 5.04624 19.4031 4.83555 19.3467C3.28263 18.9306 2.06967 17.7176 1.65357 16.1647C1.49861 15.5864 1.49931 14.9293 1.50011 14.1678C1.50017 14.1124 1.50023 14.0565 1.50023 14L1.50023 7.74219C1.5002 6.95146 1.50018 6.26932 1.54609 5.70746C1.59454 5.11444 1.70151 4.52461 1.9907 3.95705C2.42213 3.11032 3.11055 2.4219 3.95728 1.99047C4.52484 1.70128 5.11467 1.59431 5.70769 1.54586C6.26955 1.49995 6.95169 1.49997 7.74242 1.5ZM5.95199 4.53589C5.54449 4.56919 5.39341 4.6257 5.31925 4.66349C5.037 4.8073 4.80753 5.03677 4.66372 5.31902C4.62593 5.39318 4.56942 5.54426 4.53612 5.95176C4.5014 6.37676 4.50023 6.93517 4.50023 7.8V14C4.50023 15.0265 4.51312 15.2456 4.55134 15.3882C4.69004 15.9059 5.09437 16.3102 5.612 16.4489C5.75467 16.4871 5.97369 16.5 7.00023 16.5C7.82866 16.5 8.50023 17.1716 8.50023 18V18.8791L9.7484 17.8805C9.77617 17.8583 9.80369 17.8363 9.83099 17.8144C10.2367 17.4893 10.5946 17.2025 11.0053 16.9927C11.3664 16.8082 11.7507 16.6734 12.1479 16.5919C12.5996 16.4992 13.0583 16.4995 13.5782 16.4999C13.6132 16.5 13.6484 16.5 13.684 16.5H16.2002C17.0651 16.5 17.6235 16.4988 18.0485 16.4641C18.456 16.4308 18.6071 16.3743 18.6812 16.3365C18.9635 16.1927 19.1929 15.9632 19.3367 15.681C19.3745 15.6068 19.431 15.4557 19.4643 15.0482C19.4991 14.6232 19.5002 14.0648 19.5002 13.2V7.8C19.5002 6.93517 19.4991 6.37676 19.4643 5.95176C19.431 5.54426 19.3745 5.39318 19.3367 5.31902C19.1929 5.03677 18.9635 4.8073 18.6812 4.66349C18.6071 4.6257 18.456 4.56919 18.0485 4.53589C17.6235 4.50117 17.0651 4.5 16.2002 4.5H7.80023C6.9354 4.5 6.37699 4.50117 5.95199 4.53589ZM5.50023 8.5C5.50023 7.67158 6.17181 7 7.00023 7H12.0002C12.8287 7 13.5002 7.67158 13.5002 8.5C13.5002 9.32843 12.8287 10 12.0002 10H7.00023C6.17181 10 5.50023 9.32843 5.50023 8.5ZM5.50023 12C5.50023 11.1716 6.17181 10.5 7.00023 10.5H15.0002C15.8287 10.5 16.5002 11.1716 16.5002 12C16.5002 12.8284 15.8287 13.5 15.0002 13.5H7.00023C6.17181 13.5 5.50023 12.8284 5.50023 12Z"/>
</svg>
