<svg width="24" height="24" viewBox="0 0 24 24" xmlns="http://www.w3.org/2000/svg">
<path d="M20.307 4.52009C18.787 3.8115 17.1412 3.2972 15.4269 3.00005C15.4119 2.99957 15.3969 3.00239 15.3831 3.00832C15.3693 3.01424 15.3569 3.02312 15.3469 3.03434C15.1412 3.41149 14.9012 3.90293 14.7412 4.28009C12.9228 4.00579 11.0736 4.00579 9.2553 4.28009C9.0953 3.89151 8.85529 3.41149 8.63814 3.03434C8.62671 3.01148 8.59242 3.00005 8.55814 3.00005C6.8438 3.2972 5.20947 3.8115 3.678 4.52009C3.66657 4.52009 3.65515 4.53152 3.64372 4.54295C0.53506 9.19451 -0.322107 13.7203 0.100762 18.2005C0.100762 18.2233 0.112191 18.2462 0.135048 18.2576C2.19225 19.7662 4.16945 20.6805 6.12378 21.2863C6.15807 21.2977 6.19236 21.2863 6.20379 21.2634C6.66094 20.6348 7.07238 19.9719 7.42668 19.2748C7.44954 19.2291 7.42668 19.1834 7.38096 19.1719C6.72952 18.9205 6.11236 18.6233 5.50662 18.2805C5.46091 18.2576 5.46091 18.189 5.4952 18.1548C5.62091 18.0633 5.74663 17.9605 5.87235 17.869C5.89521 17.8462 5.92949 17.8462 5.95235 17.8576C9.88389 19.6519 14.124 19.6519 18.0098 17.8576C18.0327 17.8462 18.067 17.8462 18.0898 17.869C18.2155 17.9719 18.3413 18.0633 18.467 18.1662C18.5127 18.2005 18.5127 18.269 18.4556 18.2919C17.8612 18.6462 17.2327 18.9319 16.5812 19.1834C16.5355 19.1948 16.5241 19.2519 16.5355 19.2862C16.9012 19.9834 17.3127 20.6462 17.7584 21.2748C17.7927 21.2863 17.827 21.2977 17.8612 21.2863C19.827 20.6805 21.8042 19.7662 23.8614 18.2576C23.8843 18.2462 23.8957 18.2233 23.8957 18.2005C24.3986 13.0232 23.0614 8.53163 20.3527 4.54295C20.3413 4.53152 20.3299 4.52009 20.307 4.52009ZM8.02098 15.469C6.8438 15.469 5.86092 14.3832 5.86092 13.046C5.86092 11.7089 6.82095 10.6231 8.02098 10.6231C9.23244 10.6231 10.1925 11.7203 10.181 13.046C10.181 14.3832 9.22101 15.469 8.02098 15.469ZM15.9869 15.469C14.8097 15.469 13.8269 14.3832 13.8269 13.046C13.8269 11.7089 14.7869 10.6231 15.9869 10.6231C17.1984 10.6231 18.1584 11.7203 18.147 13.046C18.147 14.3832 17.1984 15.469 15.9869 15.469Z" />
</svg>
