<svg width="24" height="24" viewBox="0 0 24 24" xmlns="http://www.w3.org/2000/svg">
<path fill-rule="evenodd" clip-rule="evenodd" d="M16.0578 1.36267C17.8747 -0.454225 20.8205 -0.454223 22.6373 1.36267C24.4542 3.17957 24.4542 6.12535 22.6373 7.94224L10.5132 20.0664C10.4969 20.0827 10.4807 20.0989 10.4646 20.115C10.2232 20.3566 10.0102 20.5699 9.76799 20.7578C9.55477 20.9233 9.32809 21.0706 9.09031 21.1982C8.82021 21.3432 8.53879 21.4513 8.21998 21.5737C8.19875 21.5819 8.17737 21.5901 8.15581 21.5984L8.0652 21.6332C8.03566 21.6447 8.00696 21.6557 7.97943 21.6662C7.96696 21.671 7.95473 21.6757 7.94277 21.6803L2.19112 23.8925C1.59643 24.1212 0.922815 23.9783 0.472276 23.5277C0.0217362 23.0772 -0.121214 22.4036 0.107513 21.8089L2.3338 16.0206C2.34033 16.0036 2.34702 15.9861 2.35388 15.9683L2.40162 15.8442C2.40992 15.8226 2.41814 15.8012 2.42629 15.78C2.54873 15.4612 2.6568 15.1798 2.80178 14.9097C2.92942 14.6719 3.07674 14.4452 3.24219 14.232C3.43012 13.9898 3.64339 13.7768 3.88499 13.5354C3.90108 13.5193 3.91729 13.5031 3.93363 13.4868L16.0578 1.36267ZM4.91374 18.2954L4.41941 19.5806L5.70461 19.0863L4.91374 18.2954ZM8.59895 17.4204L6.57963 15.4011L18.3379 3.6428C18.8955 3.08518 19.7996 3.08518 20.3572 3.6428C20.9148 4.20042 20.9148 5.1045 20.3572 5.66212L8.59895 17.4204Z"/>
</svg>
