<svg width="24" height="24" viewBox="0 0 24 24" xmlns="http://www.w3.org/2000/svg">
<path d="M12.7845 17.5809C12.8894 17.6854 12.9726 17.8096 13.0294 17.9463C13.0862 18.0831 13.1154 18.2297 13.1154 18.3777C13.1154 18.5258 13.0862 18.6724 13.0294 18.8092C12.9726 18.9459 12.8894 19.0701 12.7845 19.1746L12.2276 19.7315C11.1724 20.7867 9.74119 21.3795 8.24887 21.3795C6.75655 21.3795 5.32535 20.7867 4.27012 19.7315C3.21489 18.6762 2.62207 17.2451 2.62207 15.7527C2.62207 14.2604 3.21489 12.8292 4.27012 11.774L6.53137 9.51367C7.54526 8.49727 8.90941 7.907 10.3444 7.86378C11.7794 7.82055 13.1766 8.32764 14.2498 9.28117C14.3606 9.37966 14.4509 9.49901 14.5156 9.63241C14.5803 9.7658 14.6181 9.91063 14.6268 10.0586C14.6355 10.2066 14.6149 10.3549 14.5663 10.4949C14.5178 10.635 14.4421 10.7641 14.3436 10.8749C14.2451 10.9857 14.1257 11.076 13.9923 11.1407C13.8589 11.2054 13.7141 11.2432 13.5661 11.2519C13.4181 11.2606 13.2698 11.24 13.1298 11.1915C12.9897 11.1429 12.8606 11.0672 12.7498 10.9687C12.1062 10.3971 11.2686 10.093 10.4082 10.1186C9.54787 10.1443 8.7298 10.4976 8.12137 11.1065L5.862 13.364C5.22896 13.997 4.87332 14.8556 4.87332 15.7509C4.87332 16.6461 5.22896 17.5047 5.862 18.1377C6.49504 18.7708 7.35362 19.1264 8.24887 19.1264C9.14412 19.1264 10.0027 18.7708 10.6357 18.1377L11.1926 17.5809C11.2971 17.4763 11.4212 17.3933 11.5578 17.3367C11.6943 17.28 11.8407 17.2509 11.9886 17.2509C12.1364 17.2509 12.2828 17.28 12.4194 17.3367C12.5559 17.3933 12.68 17.4763 12.7845 17.5809ZM19.7295 4.26836C18.6734 3.21475 17.2425 2.62305 15.7507 2.62305C14.259 2.62305 12.8281 3.21475 11.772 4.26836L11.2151 4.82523C11.0038 5.03658 10.885 5.32322 10.885 5.62211C10.885 5.92099 11.0038 6.20764 11.2151 6.41898C11.4265 6.63033 11.7131 6.74906 12.012 6.74906C12.3109 6.74906 12.5975 6.63033 12.8089 6.41898L13.3657 5.86211C13.9988 5.22907 14.8574 4.87343 15.7526 4.87343C16.6479 4.87343 17.5065 5.22907 18.1395 5.86211C18.7725 6.49514 19.1282 7.35373 19.1282 8.24898C19.1282 9.14423 18.7725 10.0028 18.1395 10.6359L15.8792 12.8971C15.2702 13.5057 14.4517 13.8586 13.5911 13.8835C12.7305 13.9084 11.893 13.6035 11.2498 13.0312C11.139 12.9327 11.0099 12.857 10.8698 12.8084C10.7298 12.7598 10.5815 12.7393 10.4335 12.748C10.2855 12.7567 10.1407 12.7944 10.0073 12.8591C9.8739 12.9238 9.75455 13.0141 9.65606 13.1249C9.55757 13.2357 9.48187 13.3648 9.43327 13.5049C9.38468 13.645 9.36415 13.7932 9.37286 13.9412C9.38156 14.0892 9.41933 14.234 9.48401 14.3674C9.54869 14.5008 9.63901 14.6202 9.74981 14.7187C10.8223 15.672 12.2186 16.1794 13.6529 16.137C15.0872 16.0947 16.4511 15.5058 17.4654 14.4909L19.7267 12.2305C20.7815 11.1747 21.3743 9.74344 21.3748 8.25097C21.3753 6.7585 20.7836 5.32681 19.7295 4.27023V4.26836Z" />
</svg>
