<svg width="24" height="24" viewBox="0 0 24 24" xmlns="http://www.w3.org/2000/svg">
<path fill-rule="evenodd" clip-rule="evenodd" d="M9.86242 1.99993C9.90761 1.99995 9.95346 1.99997 10 1.99997L16.2413 1.99997C17.0463 1.99996 17.7106 1.99995 18.2518 2.04417C18.8139 2.09009 19.3306 2.18866 19.816 2.43595C20.5686 2.81944 21.1805 3.43136 21.564 4.18401C21.8113 4.66935 21.9099 5.18605 21.9558 5.74815C22 6.28934 22 6.95369 22 7.75865V16.2413C22 17.0463 22 17.7106 21.9558 18.2518C21.9099 18.8139 21.8113 19.3306 21.564 19.8159C21.1805 20.5686 20.5686 21.1805 19.816 21.564C19.3306 21.8113 18.8139 21.9099 18.2518 21.9558C17.7106 22 17.0463 22 16.2413 22H10C9.95347 22 9.90762 22 9.86243 22C9.06704 22.0005 8.47638 22.0008 7.96472 21.8637C6.58436 21.4938 5.50617 20.4156 5.1363 19.0353C4.9992 18.5236 4.99952 17.9329 4.99995 17.1376C4.99997 17.0924 5 17.0465 5 17C5 16.4477 5.44771 16 6 16C6.55228 16 7 16.4477 7 17C7 17.9943 7.00859 18.2953 7.06815 18.5176C7.25308 19.2078 7.79218 19.7469 8.48236 19.9318C8.70464 19.9914 9.00565 20 10 20H16.2C17.0566 20 17.6389 19.9992 18.089 19.9624C18.5274 19.9266 18.7516 19.8617 18.908 19.782C19.2843 19.5902 19.5903 19.2843 19.782 18.908C19.8617 18.7516 19.9266 18.5274 19.9624 18.0889C19.9992 17.6388 20 17.0566 20 16.2V7.79997C20 6.94339 19.9992 6.3611 19.9624 5.91101C19.9266 5.4726 19.8617 5.24839 19.782 5.09199C19.5903 4.71567 19.2843 4.40971 18.908 4.21796C18.7516 4.13827 18.5274 4.07335 18.089 4.03753C17.6389 4.00075 17.0566 3.99997 16.2 3.99997H10C9.00565 3.99997 8.70464 4.00856 8.48236 4.06812C7.79218 4.25306 7.25308 4.79215 7.06815 5.48234C7.00859 5.70461 7 6.00562 7 6.99997C7 7.55226 6.55228 7.99997 6 7.99997C5.44771 7.99997 5 7.55226 5 6.99997C5 6.95344 4.99997 6.90759 4.99995 6.86239C4.99952 6.06701 4.9992 5.47635 5.1363 4.9647C5.50616 3.58433 6.58435 2.50614 7.96472 2.13627C8.47637 1.99917 9.06703 1.99949 9.86242 1.99993ZM11.2929 7.29287C11.6834 6.90234 12.3166 6.90234 12.7071 7.29287L16.7071 11.2929C17.0976 11.6834 17.0976 12.3166 16.7071 12.7071L12.7071 16.7071C12.3166 17.0976 11.6834 17.0976 11.2929 16.7071C10.9024 16.3166 10.9024 15.6834 11.2929 15.2929L13.5858 13H3C2.44772 13 2 12.5523 2 12C2 11.4477 2.44772 11 3 11H13.5858L11.2929 8.70708C10.9024 8.31656 10.9024 7.68339 11.2929 7.29287Z" />
</svg>
