<svg width="24" height="24" viewBox="0 0 24 24" fill="none" xmlns="http://www.w3.org/2000/svg">
<path fill-rule="evenodd" clip-rule="evenodd" d="M10 4.5C6.96243 4.5 4.5 6.96243 4.5 10C4.5 13.0376 6.96243 15.5 10 15.5C13.0376 15.5 15.5 13.0376 15.5 10C15.5 6.96243 13.0376 4.5 10 4.5ZM1.5 10C1.5 5.30558 5.30558 1.5 10 1.5C14.6944 1.5 18.5 5.30558 18.5 10C18.5 11.8054 17.9371 13.4793 16.9773 14.8559L22.0607 19.9393C22.6465 20.5251 22.6464 21.4749 22.0607 22.0607C21.4749 22.6465 20.5251 22.6464 19.9393 22.0607L14.856 16.9772C13.4794 17.9371 11.8054 18.5 10 18.5C5.30558 18.5 1.5 14.6944 1.5 10Z"/>
</svg>
