<svg width="24" height="24" viewBox="0 0 24 24" xmlns="http://www.w3.org/2000/svg">
<path fill-rule="evenodd" clip-rule="evenodd" d="M12 4C10.067 4 8.49996 5.567 8.49996 7.5C8.49996 9.433 10.067 11 12 11C13.933 11 15.5 9.433 15.5 7.5C15.5 5.567 13.933 4 12 4ZM6.49996 7.5C6.49996 4.46243 8.96239 2 12 2C15.0375 2 17.5 4.46243 17.5 7.5C17.5 10.5376 15.0375 13 12 13C8.96239 13 6.49996 10.5376 6.49996 7.5ZM9.32623 14.5C9.38329 14.5 9.44119 14.5 9.49997 14.5H14.5C14.5587 14.5 14.6166 14.5 14.6737 14.5C15.901 14.4995 16.739 14.4992 17.4514 14.7153C19.0494 15.2 20.2999 16.4506 20.7847 18.0486C21.0008 18.761 21.0005 19.599 21 20.8263C21 20.8833 21 20.9412 21 21C21 21.5523 20.5522 22 20 22C19.4477 22 19 21.5523 19 21C19 19.5317 18.9891 19.0192 18.8708 18.6291C18.5799 17.6703 17.8296 16.92 16.8708 16.6292C16.4808 16.5108 15.9683 16.5 14.5 16.5H9.49997C8.03164 16.5 7.51917 16.5108 7.12911 16.6292C6.1703 16.92 5.41999 17.6703 5.12914 18.6291C5.01082 19.0192 4.99996 19.5317 4.99996 21C4.99996 21.5523 4.55225 22 3.99996 22C3.44768 22 2.99996 21.5523 2.99996 21C2.99996 20.9412 2.99994 20.8833 2.99992 20.8263C2.99946 19.599 2.99915 18.761 3.21526 18.0486C3.70001 16.4506 4.95053 15.2 6.54853 14.7153C7.26094 14.4992 8.09895 14.4995 9.32623 14.5Z"/>
</svg>
