<svg width="24" height="24" viewBox="0 0 24 24" xmlns="http://www.w3.org/2000/svg">
<path opacity="0.3" fill-rule="evenodd" clip-rule="evenodd" d="M9.8751 0.149963H8.4501L7.5501 3.67496L6.5751 0.149963H5.2251C5.4501 0.974963 5.7501 1.79996 6.0501 2.62496C6.5001 3.89996 6.7251 4.87496 6.8751 5.47496V9.07496H8.2251V5.47496L9.8751 0.149963ZM13.4001 6.97496V4.57496C13.4001 3.82496 13.2501 3.37496 13.0251 2.99996C12.7251 2.54996 12.2001 2.32496 11.6001 2.32496C11.0001 2.32496 10.5501 2.54996 10.2501 2.99996C10.0251 3.37496 9.8751 3.82496 9.8751 4.57496V6.89996C9.8751 7.57496 10.0251 8.17496 10.2501 8.47496C10.5501 8.92496 11.0751 9.14996 11.6751 9.14996C12.2751 9.14996 12.7251 8.92496 13.1001 8.47496C13.3251 8.17496 13.4001 7.64996 13.4001 6.97496ZM12.2001 7.19996C12.2001 7.79996 12.0501 8.09996 11.6001 8.09996C11.2251 8.09996 11.0001 7.79996 11.0001 7.19996V4.34996C11.0001 3.74996 11.1501 3.44996 11.6001 3.44996C11.9751 3.44996 12.2001 3.74996 12.2001 4.34996V7.19996ZM17.9001 9.14996V2.39996H16.7001V7.49996C16.4001 7.87496 16.1751 8.09996 15.9501 8.09996C15.8001 8.09996 15.7251 8.02496 15.6501 7.79996C15.6501 7.72496 15.6501 7.64996 15.6501 7.34996V2.39996H14.4501V7.64996C14.4501 8.09996 14.5251 8.47496 14.5251 8.62496C14.6751 8.99996 14.9001 9.14996 15.2751 9.14996C15.7251 9.14996 16.1751 8.84996 16.6251 8.32496V9.07496H17.9001V9.14996Z" />
<path fill-rule="evenodd" clip-rule="evenodd" d="M9.8751 0H8.4501L7.5501 3.525L6.6501 0H5.2251C5.4501 0.825 5.7501 1.65 6.0501 2.475C6.5001 3.75 6.7251 4.725 6.8751 5.325V9H8.2251V5.325L9.8751 0ZM13.4001 6.825V4.5C13.4001 3.75 13.2501 3.3 13.0251 2.925C12.7251 2.475 12.2001 2.25 11.6001 2.25C11.0001 2.25 10.5501 2.475 10.1751 2.925C9.9501 3.225 9.8751 3.75 9.8751 4.5V6.825C9.8751 7.5 10.0251 8.025 10.2501 8.4C10.5501 8.85 11.0751 9.075 11.6751 9.075C12.2751 9.075 12.7251 8.85 13.1001 8.4C13.3251 8.025 13.4001 7.5 13.4001 6.825ZM12.2001 7.05C12.2001 7.65 12.0501 7.95 11.6001 7.95C11.1501 7.95 11.0001 7.65 11.0001 7.05V4.2C11.0001 3.6 11.1501 3.3 11.6001 3.3C12.0501 3.3 12.2001 3.6 12.2001 4.2V7.05ZM17.9001 9V2.25H16.7001V7.35C16.4001 7.725 16.1751 7.95 15.9501 7.95C15.8001 7.95 15.7251 7.875 15.6501 7.65C15.6501 7.575 15.6501 7.5 15.6501 7.2V2.25H14.4501V7.5C14.4501 7.95 14.5251 8.325 14.5251 8.475C14.6751 8.85 14.9001 9 15.2751 9C15.7251 9 16.1751 8.7 16.6251 8.175V8.925H17.9001V9Z" />
<path fill-rule="evenodd" clip-rule="evenodd" d="M21.5 12.375C21.275 11.325 20.375 10.575 19.325 10.425C16.85 10.125 14.375 10.125 11.9 10.125C9.425 10.125 6.95 10.125 4.475 10.425C3.425 10.575 2.6 11.325 2.3 12.375C2 13.875 2 15.525 2 17.1C2 18.675 2 20.25 2.375 21.75C2.6 22.8 3.5 23.55 4.55 23.7C6.95 24 9.425 24 11.9 24C14.375 24 16.85 24 19.325 23.7C20.375 23.55 21.2 22.8 21.5 21.75C21.875 20.25 21.875 18.6 21.875 17.025C21.875 15.45 21.875 13.875 21.5 12.375ZM7.625 13.725H6.2V21.375H4.925V13.725H3.5V12.45H7.7V13.725H7.625ZM11.3 21.375H10.1V20.625C9.65 21.15 9.2 21.45 8.75 21.45C8.375 21.45 8.075 21.3 8 20.925C7.925 20.7 7.925 20.4 7.925 19.95V14.7H9.125V19.575C9.125 19.875 9.125 20.025 9.125 20.025C9.125 20.175 9.275 20.325 9.425 20.325C9.65 20.325 9.95 20.175 10.175 19.8V14.775H11.375V21.375H11.3ZM15.8 19.425C15.8 20.025 15.725 20.475 15.65 20.775C15.5 21.3 15.2 21.525 14.675 21.525C14.225 21.525 13.85 21.3 13.4 20.775V21.45H12.2V12.525H13.4V15.45C13.775 15 14.225 14.7 14.675 14.7C15.125 14.7 15.5 14.925 15.65 15.45C15.725 15.75 15.8 16.125 15.8 16.8V19.425ZM20.375 18.3H17.975V19.5C17.975 20.1 18.2 20.4 18.575 20.4C18.875 20.4 19.025 20.25 19.1 19.95C19.1 19.875 19.1 19.65 19.1 19.125H20.3V19.275C20.3 19.65 20.3 19.95 20.3 20.025C20.225 20.325 20.15 20.55 20 20.775C19.7 21.225 19.175 21.525 18.575 21.525C17.975 21.525 17.45 21.3 17.15 20.85C16.925 20.55 16.775 20.025 16.775 19.275V16.95C16.775 16.275 16.925 15.75 17.15 15.375C17.525 14.925 17.975 14.7 18.575 14.7C19.175 14.7 19.625 14.925 20 15.375C20.225 15.675 20.375 16.2 20.375 16.95V18.3V18.3Z" />
<path fill-rule="evenodd" clip-rule="evenodd" d="M14.1498 15.75C13.9248 15.75 13.7748 15.825 13.5498 16.05V20.1C13.7748 20.325 13.9248 20.4 14.1498 20.4C14.5248 20.4 14.6748 20.1 14.6748 19.5V16.65C14.5998 16.05 14.4498 15.75 14.1498 15.75Z" />
<path fill-rule="evenodd" clip-rule="evenodd" d="M18.5751 15.75C18.2001 15.75 17.9751 16.05 17.9751 16.65V17.25H19.1751V16.65C19.1751 16.05 18.9501 15.75 18.5751 15.75Z" />
</svg>
