<svg width="37" height="37" viewBox="0 0 37 37" fill="none" xmlns="http://www.w3.org/2000/svg">
<path fill-rule="evenodd" clip-rule="evenodd" d="M25.3726 16.8184L21.8758 13.3286V13.3133C21.265 12.7038 21.265 11.7437 21.8758 11.1494C22.4713 10.5398 23.4333 10.5398 24.0441 11.1494L30.152 17.245C30.5121 17.5952 30.6545 18.0903 30.579 18.5584C30.5205 18.9654 30.2992 19.3219 29.9836 19.5594L24.0278 25.5033C23.7377 25.7776 23.3406 25.9452 22.9436 25.9452L22.9589 25.962C22.5466 25.962 22.1496 25.7943 21.8747 25.52C21.264 24.9257 21.264 23.9504 21.8595 23.3561V23.3408L25.3411 19.8662H7.68986C6.83476 19.8662 6.16289 19.1804 6.16289 18.3423C6.16289 17.4889 6.83476 16.8184 7.68986 16.8184H25.3726Z" fill="white"/>
</svg>
