<svg width="410" height="574" viewBox="0 0 410 574" fill="none" xmlns="http://www.w3.org/2000/svg">
<path d="M-1.30942 508.848C-2.8212 509.572 -3.46049 511.383 -2.73731 512.895C-2.01414 514.407 -0.202352 515.046 1.30942 514.323L-1.30942 508.848ZM399.723 96.4942C401.396 96.3851 402.663 94.941 402.554 93.2687C402.445 91.5964 401.001 90.3292 399.328 90.4383L399.723 96.4942ZM342.418 136.347C341.06 137.329 340.754 139.226 341.736 140.584C342.717 141.942 344.614 142.248 345.972 141.267L342.418 136.347ZM346.705 46.3061C345.041 46.1124 343.534 47.3048 343.341 48.9694C343.147 50.6341 344.339 52.1405 346.004 52.3342L346.705 46.3061ZM0 511.586C1.30942 514.323 1.31044 514.323 1.31184 514.322C1.31282 514.321 1.31461 514.321 1.31657 514.32C1.3205 514.318 1.32598 514.315 1.33298 514.312C1.34699 514.305 1.36713 514.295 1.3933 514.283C1.44565 514.257 1.52215 514.22 1.62207 514.172C1.82191 514.074 2.11545 513.93 2.49688 513.74C3.25971 513.361 4.37423 512.799 5.79392 512.062C8.63299 510.589 12.6942 508.416 17.6049 505.607C27.4213 499.992 40.657 491.821 54.3195 481.603C81.4623 461.303 111.029 432.382 117.855 398.855L111.908 397.645C105.565 428.799 77.6904 456.546 50.6848 476.743C37.2731 486.774 24.2578 494.81 14.5916 500.339C9.76105 503.102 5.77313 505.235 2.99839 506.675C1.61117 507.395 0.52762 507.942 -0.205901 508.307C-0.572647 508.489 -0.851851 508.626 -1.03771 508.717C-1.13064 508.762 -1.20024 508.796 -1.24576 508.818C-1.26853 508.829 -1.28527 508.837 -1.29592 508.842C-1.30124 508.844 -1.30503 508.846 -1.30728 508.847C-1.30841 508.848 -1.30895 508.848 -1.30951 508.848C-1.30966 508.848 -1.30942 508.848 0 511.586ZM117.855 398.855C124.713 365.172 107.787 337.128 91.6523 310.663C75.2566 283.77 59.7519 258.581 65.7424 229.16L59.7956 227.949C53.246 260.116 70.3825 287.434 86.4706 313.822C102.82 340.638 118.22 366.647 111.908 397.645L117.855 398.855ZM65.7424 229.16C71.7323 199.741 97.4638 170.316 150.962 146.301C204.411 122.307 285.063 103.973 399.723 96.4942L399.328 90.4383C284.306 97.9405 202.85 116.356 148.476 140.764C94.1513 165.151 66.3458 195.779 59.7956 227.949L65.7424 229.16ZM344.195 138.807C345.972 141.267 345.973 141.266 345.973 141.266C345.973 141.266 345.974 141.265 345.975 141.265C345.977 141.263 345.979 141.262 345.982 141.259C345.989 141.255 345.999 141.247 346.012 141.238C346.038 141.219 346.077 141.191 346.128 141.154C346.23 141.08 346.382 140.97 346.58 140.827C346.977 140.54 347.558 140.119 348.3 139.581C349.784 138.506 351.908 136.965 354.472 135.099C359.598 131.368 366.484 126.34 373.515 121.152C380.544 115.966 387.729 110.613 393.451 106.235C396.311 104.048 398.819 102.093 400.766 100.519C402.639 99.0034 404.178 97.6945 404.94 96.8598L400.458 92.7687C400.064 93.2005 398.908 94.2163 396.95 95.7996C395.065 97.324 392.605 99.2413 389.763 101.415C384.083 105.761 376.931 111.09 369.912 116.269C362.895 121.446 356.021 126.466 350.901 130.192C348.341 132.055 346.22 133.594 344.739 134.667C343.998 135.204 343.418 135.624 343.023 135.91C342.825 136.053 342.674 136.162 342.572 136.236C342.521 136.273 342.483 136.301 342.457 136.319C342.444 136.329 342.434 136.336 342.428 136.34C342.425 136.343 342.422 136.344 342.421 136.346C342.42 136.346 342.419 136.347 342.419 136.347C342.418 136.347 342.418 136.347 344.195 138.807ZM404.94 96.8598C406.207 95.4719 406.112 93.7805 405.831 92.708C405.554 91.6475 404.977 90.6257 404.367 89.7287C403.121 87.8952 401.156 85.7532 398.823 83.4909C394.114 78.9242 387.397 73.3803 380.413 68.0275C373.415 62.6636 366.072 57.431 360.071 53.4831C357.075 51.5118 354.381 49.8388 352.214 48.6253C351.134 48.02 350.146 47.5072 349.295 47.1251C348.53 46.7821 347.589 46.4089 346.705 46.3061L346.004 52.3342C345.889 52.3208 346.097 52.3417 346.809 52.6615C347.434 52.9422 348.25 53.361 349.248 53.92C351.239 55.035 353.8 56.6215 356.736 58.553C362.599 62.4108 369.824 67.5571 376.721 72.844C383.633 78.142 390.137 83.5209 394.598 87.8474C396.851 90.0318 398.457 91.8291 399.348 93.1398C399.807 93.8149 399.94 94.1665 399.96 94.2446C399.978 94.3108 399.769 93.5233 400.458 92.7687L404.94 96.8598Z" fill="#9EFF00"/>
</svg>
