<svg width="406" height="393" viewBox="0 0 406 393" fill="none" xmlns="http://www.w3.org/2000/svg">
<path d="M35.9107 387.631C36.1769 388.415 37.0287 388.835 37.8132 388.569C38.5976 388.303 39.0178 387.451 38.7515 386.666L35.9107 387.631ZM185.523 209.53L184.711 210.791L184.711 210.791L185.523 209.53ZM405.366 1.20553C406.031 0.712571 406.171 -0.226784 405.678 -0.89258C405.186 -1.55838 404.246 -1.69849 403.58 -1.20553L405.366 1.20553ZM3.00301 355.755C2.38703 355.201 1.43862 355.251 0.884667 355.867C0.330719 356.483 0.381007 357.432 0.996988 357.985L3.00301 355.755ZM37.1953 387.809L36.2633 388.984C36.8807 389.474 37.7717 389.402 38.303 388.821L37.1953 387.809ZM67.1079 348.449C67.4925 347.715 67.2095 346.809 66.4758 346.424C65.742 346.039 64.8354 346.322 64.4508 347.056L67.1079 348.449ZM37.3311 387.148C38.7515 386.666 38.7516 386.667 38.7515 386.666C38.7513 386.666 38.7511 386.665 38.7507 386.664C38.7499 386.662 38.7486 386.658 38.7468 386.652C38.7433 386.642 38.7377 386.625 38.7303 386.603C38.7154 386.558 38.6928 386.49 38.663 386.399C38.6035 386.217 38.515 385.943 38.4012 385.581C38.1734 384.856 37.8442 383.778 37.4416 382.374C36.6363 379.568 35.5377 375.462 34.3703 370.283C32.0352 359.923 29.4277 345.279 28.3413 328.157C26.1672 293.893 30.0921 249.836 54.3385 210.314L51.7813 208.746C27.0912 248.991 23.1517 293.744 25.3474 328.347C26.4458 345.659 29.0817 360.463 31.4438 370.943C32.625 376.183 33.7384 380.345 34.558 383.202C34.9678 384.63 35.3042 385.732 35.5391 386.48C35.6565 386.853 35.7485 387.139 35.8116 387.332C35.8432 387.428 35.8675 387.501 35.8842 387.551C35.8925 387.576 35.8989 387.596 35.9033 387.609C35.9056 387.615 35.9073 387.62 35.9085 387.624C35.9091 387.626 35.9097 387.628 35.91 387.628C35.9104 387.63 35.9107 387.631 37.3311 387.148ZM54.3385 210.314C66.4674 190.544 78.9069 179.726 91.058 174.744C103.186 169.772 115.226 170.534 126.739 174.317C138.281 178.11 149.234 184.923 159.096 191.968C164.023 195.488 168.65 199.046 172.942 202.304C177.218 205.551 181.176 208.513 184.711 210.791L186.336 208.269C182.913 206.063 179.043 203.17 174.756 199.915C170.484 196.671 165.812 193.079 160.839 189.527C150.902 182.427 139.654 175.404 127.675 171.467C115.668 167.521 102.868 166.66 89.92 171.968C76.9946 177.267 64.1206 188.632 51.7813 208.746L54.3385 210.314ZM184.711 210.791C197.505 219.028 214.849 226.034 234.872 222.411C254.907 218.786 277.278 204.584 300.253 171.144L297.78 169.445C275.081 202.484 253.323 216.024 234.338 219.459C215.342 222.896 198.776 216.279 186.335 208.269L184.711 210.791ZM300.253 171.144C323.15 137.816 341.824 100.874 358.585 69.5206C366.977 53.8231 374.882 39.5377 382.611 27.7532C390.353 15.9488 397.843 6.77539 405.366 1.20553L403.58 -1.20553C395.623 4.68631 387.899 14.2205 380.103 26.1079C372.293 38.0152 364.333 52.4056 355.939 68.1063C339.131 99.5492 320.557 136.293 297.78 169.445L300.253 171.144ZM2 356.87C0.996988 357.985 0.997104 357.986 0.997329 357.986C0.997548 357.986 0.997881 357.986 0.99832 357.987C0.999197 357.987 1.00051 357.989 1.00224 357.99C1.00572 357.993 1.01091 357.998 1.01779 358.004C1.03156 358.017 1.05209 358.035 1.0792 358.059C1.13341 358.108 1.21392 358.18 1.3192 358.275C1.52975 358.464 1.83937 358.742 2.23576 359.098C3.02853 359.81 4.16844 360.832 5.55721 362.075C8.33465 364.562 12.1079 367.933 16.0909 371.47C24.0366 378.527 32.8744 386.297 36.2633 388.984L38.1273 386.634C34.8209 384.012 26.0611 376.313 18.083 369.227C14.104 365.693 10.3338 362.325 7.55827 359.84C6.17055 358.598 5.03159 357.576 4.23961 356.865C3.84363 356.51 3.5344 356.232 3.32421 356.043C3.21911 355.949 3.13877 355.877 3.08473 355.828C3.0577 355.804 3.03726 355.786 3.02357 355.773C3.01673 355.767 3.01158 355.762 3.00815 355.759C3.00643 355.758 3.00514 355.757 3.00428 355.756C3.00386 355.756 3.00354 355.755 3.00332 355.755C3.00311 355.755 3.00301 355.755 2 356.87ZM38.303 388.821C41.0212 385.844 47.019 378.042 52.9003 369.9C58.7774 361.763 64.6607 353.117 67.1079 348.449L64.4508 347.056C62.1186 351.505 56.3623 359.983 50.4684 368.143C44.5787 376.297 38.6741 383.965 36.0877 386.798L38.303 388.821Z" fill="#9EFF00"/>
</svg>
