<svg width="623" height="697" viewBox="0 0 623 697" fill="none" xmlns="http://www.w3.org/2000/svg">
<path d="M655.223 223.305C656.052 223.319 656.734 222.659 656.748 221.83C656.762 221.002 656.102 220.319 655.273 220.305L655.223 223.305ZM27.0345 446.594C26.2708 446.273 25.3915 446.632 25.0706 447.396C24.7498 448.16 25.1088 449.039 25.8726 449.36L27.0345 446.594ZM107.296 431.125C108.114 430.991 108.668 430.22 108.533 429.402C108.399 428.585 107.628 428.031 106.81 428.165L107.296 431.125ZM57.8313 522.308C58.5249 522.761 59.4544 522.567 59.9075 521.873C60.3606 521.179 60.1656 520.25 59.4721 519.797L57.8313 522.308ZM655.248 221.805C655.273 220.305 655.273 220.305 655.271 220.305C655.27 220.305 655.268 220.305 655.266 220.305C655.262 220.305 655.255 220.305 655.247 220.305C655.23 220.305 655.206 220.304 655.173 220.304C655.109 220.303 655.013 220.302 654.887 220.301C654.635 220.299 654.263 220.296 653.776 220.296C652.802 220.294 651.371 220.3 649.536 220.329C645.864 220.388 640.571 220.538 634.075 220.907C621.086 221.645 603.271 223.256 583.976 226.754C545.495 233.728 500.678 248.278 476.816 278.79L479.179 280.638C502.304 251.069 546.113 236.665 584.511 229.706C603.654 226.236 621.342 224.635 634.246 223.902C640.696 223.536 645.947 223.387 649.583 223.329C651.401 223.3 652.815 223.294 653.772 223.296C654.251 223.296 654.615 223.299 654.86 223.301C654.982 223.302 655.073 223.303 655.134 223.304C655.165 223.304 655.188 223.304 655.202 223.305C655.21 223.305 655.215 223.305 655.219 223.305C655.221 223.305 655.222 223.305 655.223 223.305C655.223 223.305 655.223 223.305 655.248 221.805ZM476.816 278.79C452.905 309.363 455.785 346.264 458.825 382.086C461.886 418.155 465.089 453.068 443.145 481.126L445.508 482.974C468.305 453.825 464.85 417.61 461.814 381.832C458.758 345.808 456.103 310.144 479.179 280.638L476.816 278.79ZM443.145 481.126C421.202 509.183 378.626 526.381 310.624 523.597C242.649 520.814 149.552 498.065 27.0345 446.594L25.8726 449.36C148.556 500.9 242.026 523.791 310.501 526.594C378.951 529.396 422.71 512.125 445.508 482.974L443.145 481.126ZM107.053 429.645C106.81 428.165 106.81 428.165 106.809 428.165C106.809 428.165 106.808 428.165 106.807 428.166C106.804 428.166 106.801 428.167 106.796 428.167C106.787 428.169 106.773 428.171 106.755 428.174C106.718 428.18 106.664 428.189 106.592 428.201C106.448 428.225 106.235 428.26 105.956 428.306C105.399 428.398 104.581 428.533 103.537 428.706C101.449 429.052 98.4587 429.549 94.8471 430.155C87.6243 431.367 77.9159 433.013 67.9756 434.748C58.0368 436.483 47.8598 438.308 39.7018 439.879C35.6237 440.664 32.0416 441.387 29.2424 442.005C26.4886 442.612 24.3786 443.141 23.3285 443.546L24.4082 446.345C25.2067 446.037 27.0826 445.553 29.8888 444.934C32.6497 444.325 36.2019 443.608 40.269 442.825C48.4013 441.259 58.5584 439.437 68.4915 437.704C78.4231 435.97 88.1246 434.325 95.3436 433.114C98.9529 432.508 101.941 432.011 104.027 431.665C105.07 431.493 105.888 431.357 106.444 431.266C106.723 431.22 106.936 431.185 107.079 431.161C107.151 431.149 107.205 431.14 107.242 431.134C107.26 431.131 107.273 431.129 107.283 431.128C107.287 431.127 107.291 431.126 107.293 431.126C107.294 431.126 107.295 431.126 107.295 431.125C107.296 431.125 107.296 431.125 107.053 429.645ZM23.3285 443.546C22.1975 443.983 21.6991 445.003 21.5066 445.92C21.3154 446.831 21.3521 447.921 21.5078 449.075C21.8222 451.407 22.6939 454.48 23.9263 457.988C26.4009 465.031 30.4474 474.149 34.8928 483.259C39.3422 492.378 44.2129 501.534 48.3527 508.664C50.4214 512.228 52.3174 515.302 53.8938 517.62C54.6811 518.777 55.4009 519.764 56.032 520.534C56.6332 521.269 57.2488 521.928 57.8313 522.308L59.4721 519.797C59.3058 519.688 58.9368 519.347 58.3534 518.634C57.7999 517.958 57.1353 517.051 56.3743 515.932C54.854 513.697 52.9978 510.69 50.9471 507.158C46.8481 500.097 42.011 491.006 37.589 481.944C33.1631 472.873 29.1748 463.876 26.7567 456.993C25.5427 453.538 24.7535 450.696 24.4809 448.674C24.343 447.652 24.3546 446.956 24.4427 446.536C24.5295 446.122 24.615 446.266 24.4082 446.345L23.3285 443.546Z" fill="#9EFF00"/>
</svg>
