<svg width="589" height="667" viewBox="0 0 589 667" fill="none" xmlns="http://www.w3.org/2000/svg">
<path d="M602.608 493.622C604.367 492.65 605.004 490.436 604.032 488.677C603.06 486.919 600.846 486.281 599.087 487.254L602.608 493.622ZM421.938 505.807L422.932 502.306L422.708 502.243L422.477 502.208L421.938 505.807ZM228.816 361.032L232.217 359.74L232.217 359.74L228.816 361.032ZM401.882 310.1L398.264 310.49L398.265 310.491L401.882 310.1ZM10.5608 182.271C8.56307 182.054 6.76741 183.497 6.55009 185.495C6.33274 187.493 7.77599 189.288 9.7737 189.506L10.5608 182.271ZM36.5895 224.005C37.989 225.447 40.2925 225.481 41.7345 224.082C43.1765 222.682 43.211 220.379 41.8114 218.937L36.5895 224.005ZM4.95712 186.188L2.62713 183.393C1.84935 184.042 1.37701 184.985 1.32368 185.996C1.27035 187.008 1.64088 187.995 2.34616 188.722L4.95712 186.188ZM43.4427 158.838C44.9861 157.551 45.1941 155.257 43.9073 153.713C42.6205 152.17 40.3261 151.962 38.7827 153.249L43.4427 158.838ZM600.848 490.438C599.087 487.254 599.088 487.253 599.089 487.253C599.089 487.253 599.089 487.253 599.089 487.253C599.088 487.253 599.086 487.254 599.083 487.256C599.077 487.259 599.066 487.265 599.05 487.274C599.018 487.291 598.968 487.319 598.899 487.356C598.76 487.43 598.546 487.544 598.259 487.693C597.685 487.991 596.817 488.431 595.671 488.986C593.378 490.095 589.969 491.66 585.56 493.456C576.738 497.05 563.922 501.565 548.019 505.207C516.207 512.493 472.121 516.275 422.932 502.306L420.944 509.307C471.59 523.689 516.959 519.786 549.643 512.3C565.988 508.557 579.18 503.913 588.305 500.196C592.869 498.336 596.418 496.708 598.839 495.537C600.05 494.951 600.979 494.48 601.612 494.151C601.928 493.987 602.171 493.858 602.337 493.769C602.421 493.724 602.485 493.689 602.53 493.665C602.553 493.652 602.571 493.643 602.584 493.636C602.59 493.632 602.596 493.629 602.6 493.627C602.602 493.626 602.604 493.625 602.605 493.624C602.607 493.623 602.608 493.622 600.848 490.438ZM421.938 505.807C422.477 502.208 422.478 502.208 422.478 502.208C422.478 502.208 422.477 502.208 422.476 502.208C422.473 502.208 422.468 502.207 422.461 502.206C422.447 502.204 422.424 502.2 422.393 502.195C422.33 502.185 422.232 502.17 422.1 502.148C421.837 502.106 421.438 502.039 420.912 501.947C419.859 501.761 418.297 501.472 416.283 501.059C412.256 500.233 406.431 498.914 399.285 496.949C384.988 493.017 365.442 486.508 344.468 476.211C302.482 455.599 255.087 419.974 232.217 359.74L225.414 362.323C249.177 424.911 298.343 461.673 341.261 482.743C362.737 493.287 382.729 499.943 397.355 503.965C404.672 505.978 410.655 507.333 414.821 508.188C416.905 508.615 418.535 508.917 419.651 509.113C420.209 509.212 420.639 509.283 420.932 509.331C421.079 509.355 421.192 509.373 421.27 509.385C421.309 509.391 421.34 509.396 421.361 509.399C421.372 509.401 421.38 509.402 421.387 509.403C421.39 509.404 421.393 509.404 421.394 509.404C421.397 509.405 421.399 509.405 421.938 505.807ZM232.217 359.74C220.932 330.027 225.253 306.827 237.655 289.932C250.192 272.854 271.377 261.691 294.674 257.126C317.957 252.564 342.847 254.699 362.4 263.646C381.853 272.548 395.843 288.061 398.264 310.49L405.499 309.709C402.745 284.197 386.683 266.755 365.428 257.029C344.271 247.347 317.795 245.18 293.275 249.985C268.769 254.786 245.713 266.658 231.789 285.625C217.732 304.775 213.376 330.63 225.414 362.324L232.217 359.74ZM398.265 310.491C400.751 333.477 394.016 351.347 381.809 363.974C369.528 376.678 351.416 384.368 330.74 386.272C289.371 390.083 238.648 370.614 207.194 323.725L201.15 327.779C234.115 376.919 287.433 397.569 331.408 393.518C353.405 391.492 373.289 383.257 387.041 369.031C400.867 354.729 408.199 334.667 405.499 309.708L398.265 310.491ZM207.194 323.725C142.366 227.085 80.0737 189.834 10.5608 182.271L9.7737 189.506C76.555 196.771 137.14 232.357 201.15 327.779L207.194 323.725ZM41.8114 218.937L7.56809 183.654L2.34616 188.722L36.5895 224.005L41.8114 218.937ZM7.28712 188.983L43.4427 158.838L38.7827 153.249L2.62713 183.393L7.28712 188.983Z" fill="#9EFF00"/>
</svg>
