<svg width="221" height="344" viewBox="0 0 221 344" fill="none" xmlns="http://www.w3.org/2000/svg">
<path d="M7.36571 -13.1436C7.44502 -13.9682 8.17781 -14.5724 9.00243 -14.4931C9.82705 -14.4138 10.4312 -13.681 10.3519 -12.8564L7.36571 -13.1436ZM206.76 254.87C206.735 254.042 207.387 253.351 208.215 253.326C209.043 253.302 209.734 253.954 209.758 254.782L206.76 254.87ZM195.344 276.316C194.915 277.024 193.992 277.25 193.284 276.821C192.575 276.392 192.349 275.469 192.778 274.761L195.344 276.316ZM208.269 252.09L206.986 251.312C207.284 250.821 207.835 250.543 208.406 250.596C208.978 250.648 209.469 251.022 209.672 251.559L208.269 252.09ZM220.762 280.903C221.054 281.678 220.664 282.543 219.889 282.836C219.114 283.129 218.248 282.738 217.955 281.963L220.762 280.903ZM8.85882 -13C10.3519 -12.8564 10.3518 -12.8554 10.3516 -12.8532C10.3514 -12.8508 10.3511 -12.8473 10.3506 -12.8425C10.3497 -12.8329 10.3483 -12.8183 10.3464 -12.7988C10.3428 -12.7599 10.3372 -12.7012 10.3299 -12.6232C10.3154 -12.4672 10.2938 -12.2336 10.2659 -11.9249C10.2102 -11.3075 10.1292 -10.3897 10.0283 -9.19073C9.82673 -6.79279 9.54601 -3.27032 9.23011 1.22238C8.5983 10.2081 7.82585 23.0737 7.26404 38.5855C6.14025 69.614 5.86015 111.208 9.22896 153.506C12.5995 195.825 19.6155 238.745 33.0337 272.477C46.4678 306.249 66.1539 330.427 94.648 336.028L94.0693 338.972C64.0634 333.073 43.8119 307.689 30.2461 273.586C16.6643 239.442 9.61785 196.175 6.23843 153.744C2.8573 111.292 3.13976 69.5735 4.26601 38.477C4.82923 22.9263 5.60367 10.0263 6.2375 1.01196C6.55442 -3.4953 6.83621 -7.03143 7.03889 -9.44208C7.14023 -10.6474 7.2218 -11.5714 7.2781 -12.1947C7.30625 -12.5064 7.32809 -12.7429 7.34292 -12.9019C7.35033 -12.9814 7.356 -13.0414 7.35982 -13.0818C7.36174 -13.102 7.36319 -13.1173 7.36417 -13.1276C7.36467 -13.1328 7.36505 -13.1367 7.3653 -13.1393C7.36556 -13.1421 7.36571 -13.1436 8.85882 -13ZM94.648 336.028C123.689 341.737 145.119 339.431 160.943 332.899C176.754 326.371 187.102 315.568 193.891 304.027C200.691 292.468 203.915 280.174 205.434 270.739C206.193 266.028 206.524 262.045 206.666 259.246C206.736 257.846 206.76 256.744 206.765 255.995C206.768 255.621 206.767 255.335 206.764 255.145C206.763 255.05 206.762 254.979 206.761 254.933C206.761 254.91 206.76 254.893 206.76 254.882C206.76 254.877 206.76 254.873 206.76 254.871C206.76 254.87 206.76 254.87 206.76 254.869C206.76 254.869 206.76 254.87 208.259 254.826C209.758 254.782 209.758 254.783 209.758 254.785C209.759 254.786 209.759 254.788 209.759 254.79C209.759 254.794 209.759 254.8 209.759 254.807C209.759 254.822 209.76 254.844 209.761 254.871C209.762 254.926 209.763 255.007 209.764 255.111C209.767 255.319 209.768 255.624 209.765 256.018C209.759 256.806 209.735 257.952 209.662 259.397C209.516 262.287 209.175 266.38 208.396 271.216C206.84 280.877 203.527 293.564 196.477 305.548C189.416 317.552 178.601 328.854 162.087 335.672C145.585 342.484 123.529 344.763 94.0693 338.972L94.648 336.028ZM192.778 274.761L206.986 251.312L209.552 252.867L195.344 276.316L192.778 274.761ZM209.672 251.559L220.762 280.903L217.955 281.963L206.866 252.62L209.672 251.559Z" fill="#9EFF00"/>
</svg>
