<svg width="77" height="84" viewBox="0 0 77 84" fill="none" xmlns="http://www.w3.org/2000/svg">
<g clip-path="url(#clip0_94_229)">
<path fill-rule="evenodd" clip-rule="evenodd" d="M43.0636 61.5814C44.8371 60.9495 46.7033 60.1096 48.1425 58.8936C49.8518 57.4494 50.5469 55.5893 51.0137 53.6314C51.613 51.1159 51.8525 48.4363 52.5792 45.9168C52.8483 44.9811 53.3661 44.6275 53.5883 44.4705C54.1499 44.074 54.7175 43.968 55.2516 44.0078C55.8846 44.0537 56.754 44.2932 57.3258 45.3542C57.4073 45.5061 57.5133 45.7374 57.5846 46.0544C57.6366 46.2868 57.6702 47.0135 57.7253 47.3131C57.8629 48.0511 57.9781 48.789 58.0861 49.531C58.4459 52.0006 58.6528 54.0982 59.7893 56.367C61.3314 59.4471 62.8765 61.3316 64.9721 62.1664C66.9983 62.9736 69.421 62.8218 72.5164 62.1889C72.8109 62.1175 73.1024 62.0563 73.3909 62.0064C74.7556 61.7679 76.0602 62.6638 76.3283 64.0235C76.5964 65.3821 75.729 66.7061 74.3765 67.0047C74.0942 67.0669 73.8159 67.126 73.5407 67.18C69.3578 68.2155 64.5154 71.9113 61.7013 75.1473C60.8339 76.1452 59.564 78.9348 58.2686 80.7144C57.3125 82.0271 56.2382 82.8925 55.3362 83.1982C54.7318 83.4041 54.2222 83.3726 53.8013 83.2686C53.1897 83.1177 52.6822 82.7864 52.2928 82.2595C52.0808 81.9711 51.8841 81.5848 51.7903 81.0915C51.7455 80.854 51.7404 80.2506 51.7414 79.9775C51.4774 79.0694 51.1543 78.1826 50.9189 77.2663C50.3573 75.0801 49.2555 73.6959 47.9468 71.8674C46.7227 70.1561 45.4079 69.0809 43.4806 68.2227C43.2298 68.1615 41.2067 67.6662 40.4922 67.3818C39.4485 66.9649 38.9511 66.2668 38.7707 65.8907C38.4639 65.2526 38.4323 64.6951 38.4935 64.2304C38.5842 63.5444 38.892 62.9574 39.4383 62.4834C39.7767 62.1889 40.2822 61.9024 40.959 61.7628C41.4819 61.6537 42.869 61.5906 43.0636 61.5814ZM54.9326 58.0181C55.0264 58.2271 55.1263 58.437 55.2323 58.649C57.4909 63.1602 60.0165 65.6787 63.0865 66.9007L63.1894 66.9405C61.1357 68.4653 59.2765 70.1694 57.8557 71.8032C57.2707 72.4759 56.4961 73.8733 55.6593 75.3063C54.899 72.8347 53.6555 71.0878 52.092 68.9015C50.8975 67.233 49.6459 65.9773 48.1079 64.954C49.3014 64.3415 50.4398 63.6239 51.4315 62.7861C53.0827 61.3908 54.1743 59.7743 54.9326 58.0181Z" fill="#9EFF00"/>
</g>
<path fill-rule="evenodd" clip-rule="evenodd" d="M18.8987 10.3411C18.758 9.50677 18.6521 8.68187 18.5837 7.85687C18.4805 6.61937 18.5443 5.3724 18.5077 4.1349C18.4918 3.6099 18.429 2.24117 18.4543 2.0443C18.684 0.328673 20.0686 0.0661407 20.4736 0.0192657C20.6696 -0.0088593 22.6815 -0.233759 23.1155 1.99749C23.648 4.72562 23.8187 7.47245 23.6302 10.1631C24.0699 12.4506 24.8218 14.7287 25.8146 16.7912C29.7652 24.9943 37.2933 25.7912 45.4496 25.7162C46.704 25.6974 47.7456 26.6818 47.8112 27.9287C47.8768 29.1849 46.9431 30.2724 45.6943 30.3849C41.1352 30.8255 33.0464 34.4818 30.2499 38.2881C29.6649 39.085 29.3246 41.0069 28.8746 42.8912C28.2465 45.5069 27.4993 48.0943 26.6621 49.1818C26.5365 49.3506 25.0093 51.0756 24.5536 51.3287C23.4586 51.9287 22.5821 51.5818 22.0843 51.263C21.5865 50.9443 21.023 50.3162 20.798 49.2756C20.5627 48.188 20.7615 45.9568 20.7249 45.4786C20.5918 43.7443 20.2449 40.3412 19.5371 37.4162C19.1556 35.8412 18.7487 34.388 18.0755 33.6662C15.5837 30.9943 11.5993 31.3881 8.24398 31.8287C7.85866 31.8756 7.47336 31.9318 7.08898 31.9787C5.72304 32.3818 4.2727 32.6818 2.73988 32.8599C0.425196 33.1318 0.0445964 31.0037 0.0239714 30.863C-0.0191536 30.5537 -0.179483 28.96 1.5652 28.3225C1.75552 28.2568 3.15991 27.9474 3.70084 27.8255C4.45459 27.6568 5.21677 27.5256 5.98177 27.4037C13.884 24.9475 18.1758 18.0474 18.8987 10.3411ZM21.6108 18.8631C24.594 25.0319 29.1211 28.0131 34.4874 29.3631C31.1368 31.1162 28.088 33.31 26.4727 35.5131C25.8596 36.3475 25.2971 38.0256 24.7899 39.9099C24.5152 38.1568 24.144 36.2911 23.6537 34.6974C23.0959 32.8786 22.3449 31.3694 21.5068 30.4694C19.8886 28.735 17.858 27.7693 15.6746 27.2912C18.2883 24.9756 20.2702 22.0881 21.6108 18.8631Z" fill="#9EFF00"/>
<defs>
<clipPath id="clip0_94_229">
<rect width="39" height="40" fill="white" transform="translate(38 44)"/>
</clipPath>
</defs>
</svg>
