<svg width="51" height="56" viewBox="0 0 51 56" fill="none" xmlns="http://www.w3.org/2000/svg">
<path fill-rule="evenodd" clip-rule="evenodd" d="M16.8194 51.7952C12.0194 50.4482 6.994 49.7687 2.119 49.1462C1.069 49.0157 0.094151 49.744 0.019151 50.77C-0.130849 51.7967 0.61959 52.7357 1.59459 52.8662C6.31959 53.4655 11.1941 54.1067 15.7691 55.4035C16.7442 55.6847 17.7946 55.1057 18.0946 54.1097C18.3946 53.1145 17.7944 52.0772 16.8194 51.7952Z" fill="#9EFF00"/>
<path fill-rule="evenodd" clip-rule="evenodd" d="M31.3688 32.698C23.6438 24.8147 14.9438 17.9462 7.36882 9.85147C6.69382 9.09547 5.49382 9.05497 4.74382 9.76072C3.99382 10.4672 3.91912 11.6552 4.66912 12.4112C12.2441 20.5292 20.9441 27.4202 28.6691 35.3267C29.4191 36.0647 30.6188 36.0752 31.3688 35.3492C32.0438 34.624 32.1188 33.436 31.3688 32.698Z" fill="#9EFF00"/>
<path fill-rule="evenodd" clip-rule="evenodd" d="M45.8456 2.37623C46.0706 6.88823 46.2951 11.4002 46.5201 15.913C46.5201 16.9465 47.4206 17.7445 48.4706 17.6942C49.5206 17.6432 50.2701 16.7635 50.2701 15.7292C50.0451 11.2097 49.8206 6.69098 49.5956 2.17223C49.5206 1.13873 48.6204 0.345982 47.5704 0.402232C46.5954 0.458482 45.7706 1.34348 45.8456 2.37623Z" fill="#9EFF00"/>
</svg>
