<svg width="345" height="229" viewBox="0 0 345 229" fill="none" xmlns="http://www.w3.org/2000/svg">
<path d="M198.424 196.953C192.295 199.541 186.217 202.387 179.994 204.737C164.866 210.452 145.699 205.862 130.766 202.455C95.229 194.345 62.106 175.455 36.7964 149.238C21.9708 133.88 8.76142 119.403 2.24279 98.6761C0.169064 92.0823 3.76083 83.6612 6.38418 77.772C12.4978 64.0474 20.6022 51.4101 30.7626 40.3264C52.1997 16.9413 158.11 8.0299 158.11 8.0299C158.11 8.0299 238.382 3.88241 270.759 37.1937C285.524 56.8479 293.91 66.1261 295.555 95.8977C292.734 112.372 286.826 128.058 276.725 140.803C265.671 154.752 249.453 168.281 234.318 178.021C220.678 186.8 205.69 196.599 190.694 202.933C176.35 208.991 164.038 214.755 148.032 211.375C130.839 207.744 112.492 202.81 96.9745 194.405C82.4767 186.553 64.2283 179.511 51.9483 168.327C44.7155 161.74 36.5163 154.723 31.1186 146.508C23.992 135.661 19.3382 123.26 14.3176 111.373C9.41981 99.7777 6.11279 90.3557 8.94838 77.5939C12.1933 62.99 21.9367 48.17 33.3252 38.7161C43.3201 30.4191 54.4912 22.9134 66.4467 17.8636C78.7496 12.667 120.733 4.00497 134.263 3.48445C164.255 2.33069 165.585 3.66419 195.62 2.66796C240.931 1.16501 287.26 5.62781 318.309 43.0001C324.783 50.7932 329.045 59.4916 332.969 68.7825C337.299 79.0322 343.442 89.9368 343.399 101.33C343.302 126.919 329.132 146.318 311.031 162.888C297.856 174.949 287.655 190.425 272.341 200.195C252.314 212.971 229.62 221.509 206.287 224.852C190.341 227.137 172.885 227.729 157.302 223.145C152.481 221.727 145.664 218.994 142.338 215.213" stroke="#9EFF00" stroke-width="3" stroke-linecap="round"/>
</svg>
