<svg width="702" height="417" viewBox="0 0 702 417" fill="none" xmlns="http://www.w3.org/2000/svg">
<path d="M8.66691 14.5134C8.66691 0.645757 7.85132 42.2408 7.85132 56.1085C7.85132 65.4654 6.22014 74.8542 6.22014 84.2916C6.22014 91.4828 7.64862 98.6191 6.99042 105.859C5.82082 118.725 7.75074 132.259 5.58579 145.008C3.198 159.069 3.77338 173.126 3.77338 187.418C3.77338 232.457 3.77338 277.598 3.77338 322.67C3.77338 351.534 4.58896 438.122 4.58896 409.258" stroke="#9EFF00" stroke-width="3" stroke-linecap="round"/>
<path d="M697.024 14.8043C695.759 14.9623 697.695 32.3749 698.02 34.6503C698.508 38.0607 698.227 40.7527 697.658 44.1655C696.147 53.2301 697.839 62.6869 697.839 71.8502C697.839 75.2136 697.566 78.696 697.884 82.0451C698.162 84.9557 699.47 87.3814 699.47 90.4728C699.47 97.4633 699.659 104.414 699.833 111.406C700.638 143.893 699.47 176.422 699.47 208.914C699.47 222.403 699.694 235.875 698.7 249.286C696.525 278.643 697.839 308.104 697.839 337.46C697.839 360.922 697.024 384.588 697.024 407.918" stroke="#9EFF00" stroke-width="3" stroke-linecap="round"/>
<path d="M8.66688 412.521C-24.45 412.521 74.8706 414.968 107.987 414.968C115.689 414.968 123.324 414.515 131.005 413.971C138.735 413.423 146.468 411.33 154.249 411.75C167.534 412.469 180.595 411.053 193.896 410.255C209.936 409.293 226.143 407.627 242.197 407.627C254.603 407.627 266.776 407.864 279.08 405.996C293.443 403.816 307.944 405.735 322.306 402.734C333.451 400.405 347.517 399.617 358.872 401.556C384.893 405.998 412.086 402.944 438.482 404.41C473.82 406.373 509.177 407.627 544.509 407.627C558.041 407.627 571.574 407.627 585.107 407.627C602.356 407.627 619.611 406.273 636.851 406.857C649.862 407.298 663.225 407.938 676.181 409.077C683.84 409.751 691.968 409.014 699.471 410.89" stroke="#9EFF00" stroke-width="3" stroke-linecap="round"/>
<path d="M12.3737 16.6337C12.1457 16.735 7.74603 18.0409 7.84263 17.2681C7.95334 16.3824 12.1717 15.8265 12.8268 15.6369C17.4099 14.3102 20.7764 13.3714 25.695 13.3714C45.3246 13.3714 64.9674 10.7497 84.508 9.11218C93.5522 8.35428 102.891 7.75286 111.966 7.75286C119.61 7.75286 127.103 9.43883 134.803 9.11218C151.854 8.3888 168.049 8.79965 185.007 10.4715C204.198 12.3636 223.906 10.9246 243.14 10.9246C264.238 10.9246 285.331 9.44207 306.439 9.29342C320.975 9.19105 335.559 6.96742 350.073 6.03106C367.427 4.91143 384.745 4.39989 402.134 4.39989C414.378 4.39989 427.288 6.37648 439.38 4.39989C444.65 3.53847 449.886 2.41855 455.238 2.13436C470.866 1.30458 486.57 4.64919 502.18 3.1765C518.381 1.6481 534.435 4.03264 550.572 5.03423C566.951 6.05092 583.43 4.39989 599.824 4.39989C611.024 4.39989 622.249 3.5843 633.49 3.5843C644.819 3.5843 655.966 2.0256 667.291 3.40306C669.337 3.65191 693.39 4.19827 693.39 7.66224" stroke="#9EFF00" stroke-width="3" stroke-linecap="round"/>
</svg>
