<svg width="122" height="122" viewBox="0 0 122 122" fill="none" xmlns="http://www.w3.org/2000/svg">
<path d="M101.037 69.6554H111.322C114.832 69.6554 117.437 70.4787 119.137 72.1254C120.838 73.7451 121.688 76.2691 121.688 79.6975V87.9579C121.688 91.3863 120.838 93.9238 119.137 95.5705C117.437 97.1902 114.832 98 111.322 98H101.037V92.8575H103.71V74.7574H101.037V69.6554ZM111.322 92.898C113.185 92.898 114.481 92.4661 115.21 91.6022C115.965 90.7114 116.343 89.3346 116.343 87.472V79.6975C116.343 78.0778 115.965 76.8495 115.21 76.0127C114.481 75.1758 113.185 74.7574 111.322 74.7574H109.055V92.898H111.322Z" fill="#9EFF00"/>
<path d="M77.7013 69.6554H83.0463V92.898H95.9228V98H77.7013V69.6554Z" fill="#9EFF00"/>
<path d="M52.5027 69.6554H71.4532V74.7574H64.6504V92.898H71.4532V98H52.5027V92.898H59.3055V74.7574H52.5027V69.6554Z" fill="#9EFF00"/>
<path d="M47.3884 69.6554V88.2009C47.3884 91.4402 46.5245 93.9778 44.7969 95.8134C43.0962 97.6491 40.5587 98.5669 37.1843 98.5669C33.8099 98.5669 31.2589 97.6491 29.5312 95.8134C27.8306 93.9778 26.9802 91.4402 26.9802 88.2009V69.6554H32.3252V88.2009C32.3252 89.8745 32.7166 91.1838 33.4995 92.1286C34.2823 93.0734 35.5106 93.5459 37.1843 93.5459C38.858 93.5459 40.0862 93.0734 40.8691 92.1286C41.652 91.1838 42.0434 89.8745 42.0434 88.2009V69.6554H47.3884Z" fill="#9EFF00"/>
<path d="M1.86261 92.898H4.5351V74.7574H1.86261V69.6554H14.2938C15.6435 69.6554 16.8313 69.8443 17.8571 70.2223C18.9099 70.6002 19.7872 71.1131 20.4891 71.761C21.218 72.4088 21.7578 73.1917 22.1088 74.1095C22.4867 75.0004 22.6757 75.9722 22.6757 77.025V77.5109C22.6757 79.1306 22.2168 80.4263 21.2989 81.3981C20.4081 82.37 19.2743 83.0448 17.8976 83.4228V84.1516C19.2743 84.5296 20.4081 85.2179 21.2989 86.2167C22.2168 87.1886 22.6757 88.4843 22.6757 90.104V90.5899C22.6757 91.6427 22.4867 92.628 22.1088 93.5459C21.7578 94.4367 21.218 95.2195 20.4891 95.8944C19.7872 96.5423 18.9099 97.0552 17.8571 97.4331C16.8313 97.811 15.6435 98 14.2938 98H1.86261V92.898ZM9.88009 92.898H13.7674C14.9011 92.898 15.819 92.655 16.5208 92.1691C17.2227 91.6832 17.5736 90.8734 17.5736 89.7396V89.4966C17.5736 88.3628 17.2227 87.553 16.5208 87.0671C15.819 86.5812 14.9011 86.3382 13.7674 86.3382H9.88009V92.898ZM9.88009 81.2362H13.7674C14.9011 81.2362 15.819 81.0067 16.5208 80.5478C17.2227 80.0619 17.5736 79.252 17.5736 78.1183V77.8753C17.5736 76.7415 17.2227 75.9452 16.5208 75.4863C15.819 75.0004 14.9011 74.7574 13.7674 74.7574H9.88009V81.2362Z" fill="#9EFF00"/>
<path d="M82.8438 63H77.4988V34.6554H82.8438V46.2767H84.0181L91.5092 34.6554H97.5425V34.8983L88.7962 48.4633V49.1921L98.0285 62.7571V63H91.7521L84.0181 51.3787H82.8438V63Z" fill="#9EFF00"/>
<path d="M52.9077 34.6554H70.8053V39.7574H58.2526V46.2362H70.3194V51.3382H58.2526V57.898H71.2912V63H52.9077V34.6554Z" fill="#9EFF00"/>
<path d="M28.114 34.6554H46.0116V39.7574H33.459V46.2362H45.5257V51.3382H33.459V57.898H46.4975V63H28.114V34.6554Z" fill="#9EFF00"/>
<path d="M23.4855 63H14.1723L12.8765 41.4581V37.5708H11.9047V41.4581L10.609 63H1.29573L0.323914 34.6554H5.18299L5.83087 56.1973V59.8416H6.80269V56.1973L8.09844 34.6554H16.6828L17.9786 56.1973V59.8416H18.9504V56.1973L19.5983 34.6554H24.4574L23.4855 63Z" fill="#9EFF00"/>
<path d="M51.5309 11.6693C51.5309 7.99798 52.4487 5.15001 54.2844 3.1254C56.147 1.10078 58.7115 0.0884705 61.9779 0.0884705C65.2443 0.0884705 67.7953 1.10078 69.631 3.1254C71.4936 5.15001 72.4249 7.99798 72.4249 11.6693V17.9861C72.4249 21.7654 71.4936 24.6403 69.631 26.611C67.7953 28.5816 65.2443 29.5669 61.9779 29.5669C58.7115 29.5669 56.147 28.5816 54.2844 26.611C52.4487 24.6403 51.5309 21.7654 51.5309 17.9861V11.6693ZM61.9779 24.7078C62.9497 24.7078 63.7596 24.5593 64.4074 24.2624C65.0553 23.9385 65.5817 23.493 65.9866 22.9262C66.3916 22.3593 66.675 21.6844 66.837 20.9015C66.999 20.1187 67.0799 19.2548 67.0799 18.31V11.3453C67.0799 10.4545 66.9855 9.61767 66.7965 8.83482C66.6075 8.05197 66.3106 7.37709 65.9057 6.8102C65.5007 6.24331 64.9743 5.79789 64.3265 5.47395C63.6786 5.12302 62.8957 4.94755 61.9779 4.94755C61.0601 4.94755 60.2772 5.12302 59.6294 5.47395C58.9815 5.79789 58.4551 6.24331 58.0501 6.8102C57.6452 7.37709 57.3483 8.05197 57.1593 8.83482C56.9704 9.61767 56.8759 10.4545 56.8759 11.3453V18.31C56.8759 19.2548 56.9569 20.1187 57.1188 20.9015C57.2808 21.6844 57.5642 22.3593 57.9692 22.9262C58.3741 23.493 58.9005 23.9385 59.5484 24.2624C60.1962 24.5593 61.0061 24.7078 61.9779 24.7078Z" fill="#9EFF00"/>
<path d="M48.2792 29H38.9659L37.6702 7.45808V3.57081H36.6984V7.45808L35.4026 29H26.0894L25.1176 0.655365H29.9766L30.6245 22.1973V25.8416H31.5963V22.1973L32.8921 0.655365H41.4765L42.7722 22.1973V25.8416H43.744V22.1973L44.3919 0.655365H49.251L48.2792 29Z" fill="#9EFF00"/>
<path d="M2.18658 0.655365H22.5947V5.7574H15.0632V29H9.71816V5.7574H2.18658V0.655365Z" fill="#9EFF00"/>
<path d="M96.2709 113.97C96.2835 114.248 96.3466 114.506 96.4601 114.746C96.5863 114.973 96.7503 115.175 96.9521 115.351C97.1666 115.515 97.4063 115.648 97.6712 115.749C97.9487 115.837 98.2389 115.881 98.5417 115.881C99.1346 115.881 99.5888 115.78 99.9041 115.578C100.22 115.364 100.447 115.112 100.585 114.822L102.629 115.957C102.516 116.197 102.358 116.449 102.156 116.714C101.954 116.966 101.689 117.2 101.361 117.414C101.046 117.628 100.655 117.805 100.188 117.944C99.7338 118.083 99.1977 118.152 98.5795 118.152C97.8731 118.152 97.2297 118.038 96.6493 117.811C96.069 117.584 95.5644 117.256 95.1355 116.827C94.7192 116.398 94.3912 115.875 94.1515 115.257C93.9244 114.639 93.8109 113.938 93.8109 113.156V113.043C93.8109 112.324 93.9307 111.668 94.1704 111.075C94.4227 110.482 94.7633 109.977 95.1923 109.561C95.6212 109.145 96.1195 108.823 96.6872 108.596C97.2675 108.356 97.8857 108.236 98.5417 108.236C99.3491 108.236 100.043 108.381 100.623 108.671C101.204 108.949 101.683 109.309 102.061 109.75C102.44 110.179 102.717 110.658 102.894 111.188C103.071 111.706 103.159 112.21 103.159 112.702V113.97H96.2709ZM98.5228 110.393C97.9172 110.393 97.4252 110.551 97.0467 110.867C96.6683 111.169 96.4223 111.523 96.3087 111.926H100.737C100.661 111.485 100.421 111.119 100.018 110.829C99.6266 110.539 99.1283 110.393 98.5228 110.393Z" fill="white"/>
<path d="M89.2824 116.525H88.9418C88.8409 116.739 88.7147 116.947 88.5633 117.149C88.4246 117.338 88.2353 117.509 87.9956 117.66C87.7686 117.811 87.491 117.931 87.163 118.02C86.8476 118.108 86.4628 118.152 86.0087 118.152C85.4284 118.152 84.8859 118.051 84.3813 117.849C83.8893 117.635 83.454 117.326 83.0756 116.922C82.7097 116.506 82.4196 116.001 82.2051 115.408C82.0033 114.815 81.9023 114.134 81.9023 113.364V113.024C81.9023 112.267 82.0096 111.592 82.224 110.999C82.4511 110.406 82.7539 109.908 83.1324 109.504C83.5234 109.088 83.9713 108.772 84.4759 108.558C84.9931 108.343 85.5356 108.236 86.1033 108.236C86.8602 108.236 87.4595 108.381 87.901 108.671C88.3426 108.949 88.6895 109.346 88.9418 109.864H89.2824V108.501H91.6667V120.196C91.6667 120.625 91.528 120.978 91.2504 121.255C90.9855 121.533 90.6386 121.672 90.2097 121.672H83.8893V119.401H88.7715C89.1121 119.401 89.2824 119.212 89.2824 118.833V116.525ZM86.7845 115.881C87.5289 115.881 88.1281 115.648 88.5823 115.181C89.049 114.702 89.2824 114.077 89.2824 113.308V113.081C89.2824 112.311 89.049 111.693 88.5823 111.226C88.1281 110.747 87.5289 110.507 86.7845 110.507C86.0402 110.507 85.4347 110.74 84.9679 111.207C84.5138 111.661 84.2867 112.286 84.2867 113.081V113.308C84.2867 114.102 84.5138 114.733 84.9679 115.2C85.4347 115.654 86.0402 115.881 86.7845 115.881Z" fill="white"/>
<path d="M73.3811 117.887H70.9968V108.501H73.3811V109.901H73.7217C73.9362 109.372 74.2831 108.962 74.7625 108.671C75.2419 108.381 75.8033 108.236 76.4467 108.236C76.9008 108.236 77.3234 108.312 77.7145 108.463C78.1182 108.602 78.4715 108.823 78.7742 109.126C79.077 109.428 79.3104 109.813 79.4744 110.28C79.651 110.747 79.7393 111.302 79.7393 111.945V117.887H77.355V112.551C77.355 111.882 77.191 111.359 76.863 110.98C76.5476 110.589 76.0871 110.393 75.4816 110.393C74.7751 110.393 74.2453 110.633 73.892 111.113C73.5514 111.579 73.3811 112.21 73.3811 113.005V117.887Z" fill="white"/>
<path d="M61.5104 113.97C61.5231 114.248 61.5861 114.506 61.6997 114.746C61.8258 114.973 61.9898 115.175 62.1917 115.351C62.4061 115.515 62.6458 115.648 62.9108 115.749C63.1883 115.837 63.4785 115.881 63.7812 115.881C64.3742 115.881 64.8283 115.78 65.1437 115.578C65.4591 115.364 65.6862 115.112 65.8249 114.822L67.8687 115.957C67.7551 116.197 67.5974 116.449 67.3956 116.714C67.1937 116.966 66.9288 117.2 66.6008 117.414C66.2854 117.628 65.8943 117.805 65.4276 117.944C64.9734 118.083 64.4372 118.152 63.8191 118.152C63.1126 118.152 62.4692 118.038 61.8889 117.811C61.3086 117.584 60.804 117.256 60.375 116.827C59.9587 116.398 59.6307 115.875 59.391 115.257C59.164 114.639 59.0504 113.938 59.0504 113.156V113.043C59.0504 112.324 59.1703 111.668 59.41 111.075C59.6623 110.482 60.0029 109.977 60.4318 109.561C60.8607 109.145 61.3591 108.823 61.9268 108.596C62.5071 108.356 63.1252 108.236 63.7812 108.236C64.5886 108.236 65.2825 108.381 65.8628 108.671C66.4431 108.949 66.9225 109.309 67.301 109.75C67.6794 110.179 67.957 110.658 68.1336 111.188C68.3102 111.706 68.3985 112.21 68.3985 112.702V113.97H61.5104ZM63.7623 110.393C63.1568 110.393 62.6648 110.551 62.2863 110.867C61.9078 111.169 61.6618 111.523 61.5483 111.926H65.9763C65.9006 111.485 65.6609 111.119 65.2572 110.829C64.8662 110.539 64.3679 110.393 63.7623 110.393Z" fill="white"/>
<path d="M47.7664 115.616H51.0591V106.912H47.88V104.641H53.4434V115.616H56.509V117.887H47.7664V115.616Z" fill="white"/>
<path d="M36.1796 115.616H39.4723V106.912H36.2932V104.641H41.8566V115.616H44.9222V117.887H36.1796V115.616Z" fill="white"/>
<path d="M30.7239 116.525C30.4716 117.118 30.1184 117.54 29.6642 117.792C29.2101 118.032 28.6802 118.152 28.0747 118.152C27.507 118.152 26.9708 118.045 26.4662 117.83C25.9742 117.616 25.539 117.3 25.1605 116.884C24.782 116.468 24.4793 115.963 24.2522 115.37C24.0377 114.777 23.9305 114.102 23.9305 113.346V113.043C23.9305 112.298 24.0377 111.63 24.2522 111.037C24.4666 110.444 24.7568 109.939 25.1226 109.523C25.4885 109.107 25.9111 108.791 26.3905 108.577C26.8825 108.35 27.4061 108.236 27.9611 108.236C28.6298 108.236 29.1659 108.35 29.5696 108.577C29.9859 108.804 30.3139 109.157 30.5536 109.637H30.8942V108.501H33.2786V115.049C33.2786 115.427 33.4489 115.616 33.7895 115.616H34.149V117.887H32.5216C32.0927 117.887 31.7395 117.761 31.4619 117.509C31.197 117.256 31.0646 116.928 31.0646 116.525H30.7239ZM28.6045 115.881C29.2984 115.881 29.8535 115.654 30.2698 115.2C30.6861 114.733 30.8942 114.102 30.8942 113.308V113.081C30.8942 112.286 30.6861 111.661 30.2698 111.207C29.8535 110.74 29.2984 110.507 28.6045 110.507C27.9107 110.507 27.3556 110.74 26.9393 111.207C26.523 111.661 26.3148 112.286 26.3148 113.081V113.308C26.3148 114.102 26.523 114.733 26.9393 115.2C27.3556 115.654 27.9107 115.881 28.6045 115.881Z" fill="white"/>
<path d="M15.4849 117.887H13.1006V104.641H15.4849V110.015H15.8255C16.0652 109.447 16.4185 109.012 16.8852 108.709C17.352 108.394 17.926 108.236 18.6073 108.236C19.074 108.236 19.503 108.312 19.894 108.463C20.2851 108.615 20.6257 108.842 20.9159 109.145C21.2061 109.447 21.4331 109.838 21.5971 110.318C21.7611 110.785 21.8431 111.34 21.8431 111.983V117.887H19.4588V112.551C19.4588 111.882 19.2948 111.359 18.9668 110.98C18.6514 110.589 18.1909 110.393 17.5854 110.393C16.8789 110.393 16.3491 110.633 15.9958 111.113C15.6552 111.579 15.4849 112.21 15.4849 113.005V117.887Z" fill="white"/>
<path d="M5.82831 115.881C6.3077 115.881 6.69878 115.812 7.00156 115.673C7.31694 115.522 7.55664 115.326 7.72064 115.086C7.89726 114.834 8.0171 114.55 8.08018 114.235C8.14326 113.907 8.1748 113.573 8.1748 113.232V112.891H10.6727V113.232C10.6727 114.809 10.2564 116.026 9.42373 116.884C8.60373 117.729 7.40525 118.152 5.82831 118.152C4.31445 118.152 3.11598 117.692 2.23289 116.771C1.34981 115.85 0.908264 114.506 0.908264 112.74V109.788C0.908264 108.943 1.0218 108.186 1.24888 107.517C1.47596 106.836 1.80397 106.268 2.23289 105.814C2.66182 105.347 3.17906 104.994 3.7846 104.754C4.39015 104.502 5.07138 104.376 5.82831 104.376C6.61048 104.376 7.30433 104.489 7.90987 104.717C8.51542 104.944 9.02004 105.272 9.42373 105.701C9.84005 106.129 10.1491 106.647 10.351 107.252C10.5654 107.858 10.6727 108.539 10.6727 109.296V109.637H8.1748V109.296C8.1748 108.981 8.13695 108.665 8.06126 108.35C7.98557 108.034 7.85941 107.751 7.68279 107.498C7.50618 107.246 7.26648 107.044 6.96371 106.893C6.66094 106.729 6.28247 106.647 5.82831 106.647C5.412 106.647 5.05246 106.729 4.74969 106.893C4.44692 107.044 4.19461 107.259 3.99276 107.536C3.79091 107.801 3.63952 108.116 3.5386 108.482C3.45029 108.835 3.40614 109.208 3.40614 109.599V112.929C3.40614 113.358 3.45029 113.756 3.5386 114.121C3.62691 114.475 3.76568 114.784 3.95491 115.049C4.14414 115.314 4.39015 115.522 4.69292 115.673C5.00831 115.812 5.38677 115.881 5.82831 115.881Z" fill="white"/>
</svg>
