<svg width="256" height="256" viewBox="0 0 256 256" fill="none" xmlns="http://www.w3.org/2000/svg">
<rect width="256" height="256" fill="black"/>
<path d="M200.061 195.277V231.979H56.7477V191.781C56.7477 181.101 58.3013 171.974 61.4083 164.4C64.7096 156.827 69.2731 150.419 75.0988 145.175C81.1187 139.932 88.3038 135.66 96.654 132.359C105.004 128.863 114.423 125.95 124.909 123.62C132.677 121.872 138.988 119.931 143.843 117.794C148.892 115.464 152.872 112.94 155.785 110.221C158.698 107.308 160.64 104.201 161.611 100.9C162.776 97.4043 163.359 93.5205 163.359 89.2483C163.359 81.0923 160.349 74.2956 154.329 68.8582C148.503 63.4209 140.347 60.7022 129.861 60.7022C118.792 60.7022 109.956 64.1005 103.354 70.8972C96.7511 77.4997 93.4499 86.7238 93.4499 98.5695V111.386H55V95.074C55 85.5587 56.6506 76.5288 59.9519 67.9843C63.4473 59.2457 68.3021 51.6723 74.5162 45.264C80.9245 38.6615 88.6922 33.5154 97.8192 29.8258C106.946 25.9419 117.238 24 128.696 24C140.93 24 151.61 25.8448 160.737 29.5345C169.864 33.0299 177.438 37.6905 183.458 43.5162C189.672 49.342 194.235 56.1387 197.148 63.9063C200.255 71.4798 201.809 79.3445 201.809 87.5006V90.996C201.809 108.085 196.954 122.261 187.244 133.524C177.729 144.787 162.097 152.943 140.347 157.992C131.22 160.128 123.647 162.361 117.627 164.692C111.801 166.828 107.237 169.255 103.936 171.974C100.635 174.692 98.3047 177.702 96.9453 181.004C95.7802 184.111 95.1976 187.703 95.1976 191.781V195.277H200.061Z" fill="#9EFF00"/>
</svg>
