<?xml version="1.0" encoding="UTF-8"?>
<!-- This file is generated by npm run build:icons -->
<svg xmlns="http://www.w3.org/2000/svg" xmlns:xlink="http://www.w3.org/1999/xlink" width="0" height="0">
<defs>
<symbol viewBox="0 0 24 24" id="account">
  <path fillRule="evenodd" clipRule="evenodd" d="M18 6C16.8954 6 16 6.89543 16 8C16 9.10457 16.8954 10 18 10C19.1046 10 20 9.10457 20 8C20 6.89543 19.1046 6 18 6ZM14.126 7C14.5701 5.27477 16.1362 4 18 4C20.2091 4 22 5.79086 22 8C22 10.2091 20.2091 12 18 12C16.1362 12 14.5701 10.7252 14.126 9L3 9C2.44772 9 2 8.55228 2 8C2 7.44772 2.44772 7 3 7L14.126 7ZM6 14C4.89543 14 4 14.8954 4 16C4 17.1046 4.89543 18 6 18C7.10457 18 8 17.1046 8 16C8 14.8954 7.10457 14 6 14ZM2 16C2 13.7909 3.79086 12 6 12C7.86384 12 9.42994 13.2748 9.87398 15L21 15C21.5523 15 22 15.4477 22 16C22 16.5523 21.5523 17 21 17L9.87398 17C9.42994 18.7252 7.86384 20 6 20C3.79086 20 2 18.2091 2 16Z" ></path>
</symbol>
<symbol viewBox="0 0 37 37" id="arrow">
  <path     d="M25.3726 16.8184L21.8758 13.3286V13.3133C21.265 12.7038 21.265 11.7437 21.8758 11.1494C22.4713 10.5398 23.4333 10.5398 24.0441 11.1494L30.152 17.245C30.5121 17.5952 30.6545 18.0903 30.579 18.5584C30.5205 18.9654 30.2992 19.3219 29.9836 19.5594L24.0278 25.5033C23.7377 25.7776 23.3406 25.9452 22.9436 25.9452L22.9589 25.962C22.5466 25.962 22.1496 25.7943 21.8747 25.52C21.264 24.9257 21.264 23.9504 21.8595 23.3561V23.3408L25.3411 19.8662H7.68986C6.83476 19.8662 6.16289 19.1804 6.16289 18.3423C6.16289 17.4889 6.83476 16.8184 7.68986 16.8184H25.3726Z"
  ></path>
</symbol>
<symbol viewBox="0 0 24 24" id="check">
<path fill-rule="evenodd" clip-rule="evenodd" d="M21.0607 4.93934C21.6464 5.52513 21.6464 6.47487 21.0607 7.06066L10.0607 18.0607C9.47487 18.6464 8.52513 18.6464 7.93934 18.0607L2.93934 13.0607C2.35355 12.4749 2.35355 11.5251 2.93934 10.9393C3.52513 10.3536 4.47487 10.3536 5.06066 10.9393L9 14.8787L18.9393 4.93934C19.5251 4.35355 20.4749 4.35355 21.0607 4.93934Z"></path>
</symbol>
<symbol viewBox="0 0 24 24" id="close">
<path fill-rule="evenodd" clip-rule="evenodd" d="M5.29289 5.29289C5.68342 4.90237 6.31658 4.90237 6.70711 5.29289L12 10.5858L17.2929 5.29289C17.6834 4.90237 18.3166 4.90237 18.7071 5.29289C19.0976 5.68342 19.0976 6.31658 18.7071 6.70711L13.4142 12L18.7071 17.2929C19.0976 17.6834 19.0976 18.3166 18.7071 18.7071C18.3166 19.0976 17.6834 19.0976 17.2929 18.7071L12 13.4142L6.70711 18.7071C6.31658 19.0976 5.68342 19.0976 5.29289 18.7071C4.90237 18.3166 4.90237 17.6834 5.29289 17.2929L10.5858 12L5.29289 6.70711C4.90237 6.31658 4.90237 5.68342 5.29289 5.29289Z" ></path>
</symbol>
<symbol viewBox="0 0 24 24" id="comment">
<path fill-rule="evenodd" clip-rule="evenodd" d="M7.74242 1.5H16.258C17.0488 1.49997 17.7309 1.49995 18.2928 1.54586C18.8858 1.59431 19.4756 1.70128 20.0432 1.99047C20.8899 2.4219 21.5783 3.11032 22.0098 3.95705C22.299 4.52461 22.4059 5.11444 22.4544 5.70746C22.5003 6.26931 22.5003 6.95144 22.5002 7.74215V13.2579C22.5003 14.0486 22.5003 14.7307 22.4544 15.2925C22.4059 15.8856 22.299 16.4754 22.0098 17.043C21.5783 17.8897 20.8899 18.5781 20.0432 19.0095C19.4756 19.2987 18.8858 19.4057 18.2928 19.4541C17.7309 19.5001 17.0488 19.5 16.2581 19.5H13.684C12.9998 19.5 12.8658 19.5071 12.751 19.5306C12.6186 19.5578 12.4905 19.6027 12.3701 19.6642C12.2658 19.7175 12.1567 19.7958 11.6225 20.2231L9.23703 22.1315C9.22581 22.1405 9.21446 22.1496 9.20299 22.1587C9.02584 22.3006 8.82168 22.464 8.63725 22.586C8.46406 22.7005 8.05409 22.9591 7.50239 22.9597C6.89331 22.9603 6.31712 22.6834 5.93715 22.2074C5.59297 21.7762 5.53882 21.2945 5.52004 21.0878C5.50004 20.8676 5.50014 20.606 5.50022 20.3791C5.50023 20.3644 5.50023 20.3499 5.50023 20.3355V19.4616C5.26739 19.4389 5.04624 19.4031 4.83555 19.3467C3.28263 18.9306 2.06967 17.7176 1.65357 16.1647C1.49861 15.5864 1.49931 14.9293 1.50011 14.1678C1.50017 14.1124 1.50023 14.0565 1.50023 14L1.50023 7.74219C1.5002 6.95146 1.50018 6.26932 1.54609 5.70746C1.59454 5.11444 1.70151 4.52461 1.9907 3.95705C2.42213 3.11032 3.11055 2.4219 3.95728 1.99047C4.52484 1.70128 5.11467 1.59431 5.70769 1.54586C6.26955 1.49995 6.95169 1.49997 7.74242 1.5ZM5.95199 4.53589C5.54449 4.56919 5.39341 4.6257 5.31925 4.66349C5.037 4.8073 4.80753 5.03677 4.66372 5.31902C4.62593 5.39318 4.56942 5.54426 4.53612 5.95176C4.5014 6.37676 4.50023 6.93517 4.50023 7.8V14C4.50023 15.0265 4.51312 15.2456 4.55134 15.3882C4.69004 15.9059 5.09437 16.3102 5.612 16.4489C5.75467 16.4871 5.97369 16.5 7.00023 16.5C7.82866 16.5 8.50023 17.1716 8.50023 18V18.8791L9.7484 17.8805C9.77617 17.8583 9.80369 17.8363 9.83099 17.8144C10.2367 17.4893 10.5946 17.2025 11.0053 16.9927C11.3664 16.8082 11.7507 16.6734 12.1479 16.5919C12.5996 16.4992 13.0583 16.4995 13.5782 16.4999C13.6132 16.5 13.6484 16.5 13.684 16.5H16.2002C17.0651 16.5 17.6235 16.4988 18.0485 16.4641C18.456 16.4308 18.6071 16.3743 18.6812 16.3365C18.9635 16.1927 19.1929 15.9632 19.3367 15.681C19.3745 15.6068 19.431 15.4557 19.4643 15.0482C19.4991 14.6232 19.5002 14.0648 19.5002 13.2V7.8C19.5002 6.93517 19.4991 6.37676 19.4643 5.95176C19.431 5.54426 19.3745 5.39318 19.3367 5.31902C19.1929 5.03677 18.9635 4.8073 18.6812 4.66349C18.6071 4.6257 18.456 4.56919 18.0485 4.53589C17.6235 4.50117 17.0651 4.5 16.2002 4.5H7.80023C6.9354 4.5 6.37699 4.50117 5.95199 4.53589ZM5.50023 8.5C5.50023 7.67158 6.17181 7 7.00023 7H12.0002C12.8287 7 13.5002 7.67158 13.5002 8.5C13.5002 9.32843 12.8287 10 12.0002 10H7.00023C6.17181 10 5.50023 9.32843 5.50023 8.5ZM5.50023 12C5.50023 11.1716 6.17181 10.5 7.00023 10.5H15.0002C15.8287 10.5 16.5002 11.1716 16.5002 12C16.5002 12.8284 15.8287 13.5 15.0002 13.5H7.00023C6.17181 13.5 5.50023 12.8284 5.50023 12Z"></path>
</symbol>
<symbol viewBox="0 0 24 24" id="discord">
<path d="M20.307 4.52009C18.787 3.8115 17.1412 3.2972 15.4269 3.00005C15.4119 2.99957 15.3969 3.00239 15.3831 3.00832C15.3693 3.01424 15.3569 3.02312 15.3469 3.03434C15.1412 3.41149 14.9012 3.90293 14.7412 4.28009C12.9228 4.00579 11.0736 4.00579 9.2553 4.28009C9.0953 3.89151 8.85529 3.41149 8.63814 3.03434C8.62671 3.01148 8.59242 3.00005 8.55814 3.00005C6.8438 3.2972 5.20947 3.8115 3.678 4.52009C3.66657 4.52009 3.65515 4.53152 3.64372 4.54295C0.53506 9.19451 -0.322107 13.7203 0.100762 18.2005C0.100762 18.2233 0.112191 18.2462 0.135048 18.2576C2.19225 19.7662 4.16945 20.6805 6.12378 21.2863C6.15807 21.2977 6.19236 21.2863 6.20379 21.2634C6.66094 20.6348 7.07238 19.9719 7.42668 19.2748C7.44954 19.2291 7.42668 19.1834 7.38096 19.1719C6.72952 18.9205 6.11236 18.6233 5.50662 18.2805C5.46091 18.2576 5.46091 18.189 5.4952 18.1548C5.62091 18.0633 5.74663 17.9605 5.87235 17.869C5.89521 17.8462 5.92949 17.8462 5.95235 17.8576C9.88389 19.6519 14.124 19.6519 18.0098 17.8576C18.0327 17.8462 18.067 17.8462 18.0898 17.869C18.2155 17.9719 18.3413 18.0633 18.467 18.1662C18.5127 18.2005 18.5127 18.269 18.4556 18.2919C17.8612 18.6462 17.2327 18.9319 16.5812 19.1834C16.5355 19.1948 16.5241 19.2519 16.5355 19.2862C16.9012 19.9834 17.3127 20.6462 17.7584 21.2748C17.7927 21.2863 17.827 21.2977 17.8612 21.2863C19.827 20.6805 21.8042 19.7662 23.8614 18.2576C23.8843 18.2462 23.8957 18.2233 23.8957 18.2005C24.3986 13.0232 23.0614 8.53163 20.3527 4.54295C20.3413 4.53152 20.3299 4.52009 20.307 4.52009ZM8.02098 15.469C6.8438 15.469 5.86092 14.3832 5.86092 13.046C5.86092 11.7089 6.82095 10.6231 8.02098 10.6231C9.23244 10.6231 10.1925 11.7203 10.181 13.046C10.181 14.3832 9.22101 15.469 8.02098 15.469ZM15.9869 15.469C14.8097 15.469 13.8269 14.3832 13.8269 13.046C13.8269 11.7089 14.7869 10.6231 15.9869 10.6231C17.1984 10.6231 18.1584 11.7203 18.147 13.046C18.147 14.3832 17.1984 15.469 15.9869 15.469Z" ></path>
</symbol>
<symbol viewBox="0 0 24 24" id="edit">
<path fill-rule="evenodd" clip-rule="evenodd" d="M16.0578 1.36267C17.8747 -0.454225 20.8205 -0.454223 22.6373 1.36267C24.4542 3.17957 24.4542 6.12535 22.6373 7.94224L10.5132 20.0664C10.4969 20.0827 10.4807 20.0989 10.4646 20.115C10.2232 20.3566 10.0102 20.5699 9.76799 20.7578C9.55477 20.9233 9.32809 21.0706 9.09031 21.1982C8.82021 21.3432 8.53879 21.4513 8.21998 21.5737C8.19875 21.5819 8.17737 21.5901 8.15581 21.5984L8.0652 21.6332C8.03566 21.6447 8.00696 21.6557 7.97943 21.6662C7.96696 21.671 7.95473 21.6757 7.94277 21.6803L2.19112 23.8925C1.59643 24.1212 0.922815 23.9783 0.472276 23.5277C0.0217362 23.0772 -0.121214 22.4036 0.107513 21.8089L2.3338 16.0206C2.34033 16.0036 2.34702 15.9861 2.35388 15.9683L2.40162 15.8442C2.40992 15.8226 2.41814 15.8012 2.42629 15.78C2.54873 15.4612 2.6568 15.1798 2.80178 14.9097C2.92942 14.6719 3.07674 14.4452 3.24219 14.232C3.43012 13.9898 3.64339 13.7768 3.88499 13.5354C3.90108 13.5193 3.91729 13.5031 3.93363 13.4868L16.0578 1.36267ZM4.91374 18.2954L4.41941 19.5806L5.70461 19.0863L4.91374 18.2954ZM8.59895 17.4204L6.57963 15.4011L18.3379 3.6428C18.8955 3.08518 19.7996 3.08518 20.3572 3.6428C20.9148 4.20042 20.9148 5.1045 20.3572 5.66212L8.59895 17.4204Z"></path>
</symbol>
<symbol viewBox="0 0 24 24" id="github">
<path d="M12 2C10.6868 2 9.38642 2.25866 8.17317 2.7612C6.95991 3.26375 5.85752 4.00035 4.92893 4.92893C3.05357 6.8043 2 9.34784 2 12C2 16.42 4.87 20.17 8.84 21.5C9.34 21.58 9.5 21.27 9.5 21V19.31C6.73 19.91 6.14 17.97 6.14 17.97C5.68 16.81 5.03 16.5 5.03 16.5C4.12 15.88 5.1 15.9 5.1 15.9C6.1 15.97 6.63 16.93 6.63 16.93C7.5 18.45 8.97 18 9.54 17.76C9.63 17.11 9.89 16.67 10.17 16.42C7.95 16.17 5.62 15.31 5.62 11.5C5.62 10.39 6 9.5 6.65 8.79C6.55 8.54 6.2 7.5 6.75 6.15C6.75 6.15 7.59 5.88 9.5 7.17C10.29 6.95 11.15 6.84 12 6.84C12.85 6.84 13.71 6.95 14.5 7.17C16.41 5.88 17.25 6.15 17.25 6.15C17.8 7.5 17.45 8.54 17.35 8.79C18 9.5 18.38 10.39 18.38 11.5C18.38 15.32 16.04 16.16 13.81 16.41C14.17 16.72 14.5 17.33 14.5 18.26V21C14.5 21.27 14.66 21.59 15.17 21.5C19.14 20.16 22 16.42 22 12C22 10.6868 21.7413 9.38642 21.2388 8.17317C20.7362 6.95991 19.9997 5.85752 19.0711 4.92893C18.1425 4.00035 17.0401 3.26375 15.8268 2.7612C14.6136 2.25866 13.3132 2 12 2Z" ></path>
</symbol>
<symbol viewBox="0 0 24 24" id="link">
<path d="M12.7845 17.5809C12.8894 17.6854 12.9726 17.8096 13.0294 17.9463C13.0862 18.0831 13.1154 18.2297 13.1154 18.3777C13.1154 18.5258 13.0862 18.6724 13.0294 18.8092C12.9726 18.9459 12.8894 19.0701 12.7845 19.1746L12.2276 19.7315C11.1724 20.7867 9.74119 21.3795 8.24887 21.3795C6.75655 21.3795 5.32535 20.7867 4.27012 19.7315C3.21489 18.6762 2.62207 17.2451 2.62207 15.7527C2.62207 14.2604 3.21489 12.8292 4.27012 11.774L6.53137 9.51367C7.54526 8.49727 8.90941 7.907 10.3444 7.86378C11.7794 7.82055 13.1766 8.32764 14.2498 9.28117C14.3606 9.37966 14.4509 9.49901 14.5156 9.63241C14.5803 9.7658 14.6181 9.91063 14.6268 10.0586C14.6355 10.2066 14.6149 10.3549 14.5663 10.4949C14.5178 10.635 14.4421 10.7641 14.3436 10.8749C14.2451 10.9857 14.1257 11.076 13.9923 11.1407C13.8589 11.2054 13.7141 11.2432 13.5661 11.2519C13.4181 11.2606 13.2698 11.24 13.1298 11.1915C12.9897 11.1429 12.8606 11.0672 12.7498 10.9687C12.1062 10.3971 11.2686 10.093 10.4082 10.1186C9.54787 10.1443 8.7298 10.4976 8.12137 11.1065L5.862 13.364C5.22896 13.997 4.87332 14.8556 4.87332 15.7509C4.87332 16.6461 5.22896 17.5047 5.862 18.1377C6.49504 18.7708 7.35362 19.1264 8.24887 19.1264C9.14412 19.1264 10.0027 18.7708 10.6357 18.1377L11.1926 17.5809C11.2971 17.4763 11.4212 17.3933 11.5578 17.3367C11.6943 17.28 11.8407 17.2509 11.9886 17.2509C12.1364 17.2509 12.2828 17.28 12.4194 17.3367C12.5559 17.3933 12.68 17.4763 12.7845 17.5809ZM19.7295 4.26836C18.6734 3.21475 17.2425 2.62305 15.7507 2.62305C14.259 2.62305 12.8281 3.21475 11.772 4.26836L11.2151 4.82523C11.0038 5.03658 10.885 5.32322 10.885 5.62211C10.885 5.92099 11.0038 6.20764 11.2151 6.41898C11.4265 6.63033 11.7131 6.74906 12.012 6.74906C12.3109 6.74906 12.5975 6.63033 12.8089 6.41898L13.3657 5.86211C13.9988 5.22907 14.8574 4.87343 15.7526 4.87343C16.6479 4.87343 17.5065 5.22907 18.1395 5.86211C18.7725 6.49514 19.1282 7.35373 19.1282 8.24898C19.1282 9.14423 18.7725 10.0028 18.1395 10.6359L15.8792 12.8971C15.2702 13.5057 14.4517 13.8586 13.5911 13.8835C12.7305 13.9084 11.893 13.6035 11.2498 13.0312C11.139 12.9327 11.0099 12.857 10.8698 12.8084C10.7298 12.7598 10.5815 12.7393 10.4335 12.748C10.2855 12.7567 10.1407 12.7944 10.0073 12.8591C9.8739 12.9238 9.75455 13.0141 9.65606 13.1249C9.55757 13.2357 9.48187 13.3648 9.43327 13.5049C9.38468 13.645 9.36415 13.7932 9.37286 13.9412C9.38156 14.0892 9.41933 14.234 9.48401 14.3674C9.54869 14.5008 9.63901 14.6202 9.74981 14.7187C10.8223 15.672 12.2186 16.1794 13.6529 16.137C15.0872 16.0947 16.4511 15.5058 17.4654 14.4909L19.7267 12.2305C20.7815 11.1747 21.3743 9.74344 21.3748 8.25097C21.3753 6.7585 20.7836 5.32681 19.7295 4.27023V4.26836Z" ></path>
</symbol>
<symbol viewBox="0 0 24 24" id="linkedin">
<path d="M19 3C19.5304 3 20.0391 3.21071 20.4142 3.58579C20.7893 3.96086 21 4.46957 21 5V19C21 19.5304 20.7893 20.0391 20.4142 20.4142C20.0391 20.7893 19.5304 21 19 21H5C4.46957 21 3.96086 20.7893 3.58579 20.4142C3.21071 20.0391 3 19.5304 3 19V5C3 4.46957 3.21071 3.96086 3.58579 3.58579C3.96086 3.21071 4.46957 3 5 3H19ZM18.5 18.5V13.2C18.5 12.3354 18.1565 11.5062 17.5452 10.8948C16.9338 10.2835 16.1046 9.94 15.24 9.94C14.39 9.94 13.4 10.46 12.92 11.24V10.13H10.13V18.5H12.92V13.57C12.92 12.8 13.54 12.17 14.31 12.17C14.6813 12.17 15.0374 12.3175 15.2999 12.5801C15.5625 12.8426 15.71 13.1987 15.71 13.57V18.5H18.5ZM6.88 8.56C7.32556 8.56 7.75288 8.383 8.06794 8.06794C8.383 7.75288 8.56 7.32556 8.56 6.88C8.56 5.95 7.81 5.19 6.88 5.19C6.43178 5.19 6.00193 5.36805 5.68499 5.68499C5.36805 6.00193 5.19 6.43178 5.19 6.88C5.19 7.81 5.95 8.56 6.88 8.56ZM8.27 18.5V10.13H5.5V18.5H8.27Z" ></path>
</symbol>
<symbol viewBox="0 0 24 24" id="location">
<path d="M12.0001 2C7.58908 2 4.00008 5.589 4.00008 9.995C3.97108 16.44 11.6961 21.784 12.0001 22C12.0001 22 20.0291 16.44 20.0001 10C20.0001 5.589 16.4111 2 12.0001 2ZM12.0001 14C9.79008 14 8.00008 12.21 8.00008 10C8.00008 7.79 9.79008 6 12.0001 6C14.2101 6 16.0001 7.79 16.0001 10C16.0001 12.21 14.2101 14 12.0001 14Z" ></path>
</symbol>
<symbol viewBox="0 0 24 24" id="login">
<path fill-rule="evenodd" clip-rule="evenodd" d="M9.86242 1.99993C9.90761 1.99995 9.95346 1.99997 10 1.99997L16.2413 1.99997C17.0463 1.99996 17.7106 1.99995 18.2518 2.04417C18.8139 2.09009 19.3306 2.18866 19.816 2.43595C20.5686 2.81944 21.1805 3.43136 21.564 4.18401C21.8113 4.66935 21.9099 5.18605 21.9558 5.74815C22 6.28934 22 6.95369 22 7.75865V16.2413C22 17.0463 22 17.7106 21.9558 18.2518C21.9099 18.8139 21.8113 19.3306 21.564 19.8159C21.1805 20.5686 20.5686 21.1805 19.816 21.564C19.3306 21.8113 18.8139 21.9099 18.2518 21.9558C17.7106 22 17.0463 22 16.2413 22H10C9.95347 22 9.90762 22 9.86243 22C9.06704 22.0005 8.47638 22.0008 7.96472 21.8637C6.58436 21.4938 5.50617 20.4156 5.1363 19.0353C4.9992 18.5236 4.99952 17.9329 4.99995 17.1376C4.99997 17.0924 5 17.0465 5 17C5 16.4477 5.44771 16 6 16C6.55228 16 7 16.4477 7 17C7 17.9943 7.00859 18.2953 7.06815 18.5176C7.25308 19.2078 7.79218 19.7469 8.48236 19.9318C8.70464 19.9914 9.00565 20 10 20H16.2C17.0566 20 17.6389 19.9992 18.089 19.9624C18.5274 19.9266 18.7516 19.8617 18.908 19.782C19.2843 19.5902 19.5903 19.2843 19.782 18.908C19.8617 18.7516 19.9266 18.5274 19.9624 18.0889C19.9992 17.6388 20 17.0566 20 16.2V7.79997C20 6.94339 19.9992 6.3611 19.9624 5.91101C19.9266 5.4726 19.8617 5.24839 19.782 5.09199C19.5903 4.71567 19.2843 4.40971 18.908 4.21796C18.7516 4.13827 18.5274 4.07335 18.089 4.03753C17.6389 4.00075 17.0566 3.99997 16.2 3.99997H10C9.00565 3.99997 8.70464 4.00856 8.48236 4.06812C7.79218 4.25306 7.25308 4.79215 7.06815 5.48234C7.00859 5.70461 7 6.00562 7 6.99997C7 7.55226 6.55228 7.99997 6 7.99997C5.44771 7.99997 5 7.55226 5 6.99997C5 6.95344 4.99997 6.90759 4.99995 6.86239C4.99952 6.06701 4.9992 5.47635 5.1363 4.9647C5.50616 3.58433 6.58435 2.50614 7.96472 2.13627C8.47637 1.99917 9.06703 1.99949 9.86242 1.99993ZM11.2929 7.29287C11.6834 6.90234 12.3166 6.90234 12.7071 7.29287L16.7071 11.2929C17.0976 11.6834 17.0976 12.3166 16.7071 12.7071L12.7071 16.7071C12.3166 17.0976 11.6834 17.0976 11.2929 16.7071C10.9024 16.3166 10.9024 15.6834 11.2929 15.2929L13.5858 13H3C2.44772 13 2 12.5523 2 12C2 11.4477 2.44772 11 3 11H13.5858L11.2929 8.70708C10.9024 8.31656 10.9024 7.68339 11.2929 7.29287Z" ></path>
</symbol>
<symbol viewBox="0 0 24 24" id="logout">
<path fill-rule="evenodd" clip-rule="evenodd" d="M7.7587 2L9 2C9.55229 2 10 2.44772 10 3C10 3.55229 9.55229 4 9 4H7.8C6.94342 4 6.36113 4.00078 5.91104 4.03755C5.47262 4.07337 5.24842 4.1383 5.09202 4.21799C4.7157 4.40973 4.40974 4.7157 4.21799 5.09202C4.1383 5.24842 4.07337 5.47262 4.03755 5.91104C4.00078 6.36113 4 6.94342 4 7.8V16.2C4 17.0566 4.00078 17.6389 4.03755 18.089C4.07337 18.5274 4.1383 18.7516 4.21799 18.908C4.40973 19.2843 4.7157 19.5903 5.09202 19.782C5.24842 19.8617 5.47262 19.9266 5.91104 19.9624C6.36113 19.9992 6.94342 20 7.8 20H9C9.55229 20 10 20.4477 10 21C10 21.5523 9.55229 22 9 22H7.75868C6.95372 22 6.28937 22 5.74818 21.9558C5.18608 21.9099 4.66937 21.8113 4.18404 21.564C3.43139 21.1805 2.81947 20.5686 2.43598 19.816C2.18868 19.3306 2.09012 18.8139 2.04419 18.2518C1.99998 17.7106 1.99999 17.0463 2 16.2413V7.7587C1.99999 6.95373 1.99998 6.28937 2.04419 5.74817C2.09012 5.18608 2.18868 4.66937 2.43598 4.18404C2.81947 3.43139 3.43139 2.81947 4.18404 2.43597C4.66938 2.18868 5.18608 2.09012 5.74818 2.04419C6.28937 1.99998 6.95373 1.99999 7.7587 2ZM15.2929 6.29289C15.6834 5.90237 16.3166 5.90237 16.7071 6.29289L21.7071 11.2929C22.0976 11.6834 22.0976 12.3166 21.7071 12.7071L16.7071 17.7071C16.3166 18.0976 15.6834 18.0976 15.2929 17.7071C14.9024 17.3166 14.9024 16.6834 15.2929 16.2929L18.5858 13H9C8.44772 13 8 12.5523 8 12C8 11.4477 8.44772 11 9 11H18.5858L15.2929 7.70711C14.9024 7.31658 14.9024 6.68342 15.2929 6.29289Z" ></path>
</symbol>
<symbol viewBox="0 0 24 24" id="plus-circle">
<path fill-rule="evenodd" clip-rule="evenodd" d="M12 3.5C7.30558 3.5 3.5 7.30558 3.5 12C3.5 16.6944 7.30558 20.5 12 20.5C16.6944 20.5 20.5 16.6944 20.5 12C20.5 7.30558 16.6944 3.5 12 3.5ZM0.5 12C0.5 5.64873 5.64873 0.5 12 0.5C18.3513 0.5 23.5 5.64873 23.5 12C23.5 18.3513 18.3513 23.5 12 23.5C5.64873 23.5 0.5 18.3513 0.5 12ZM12 6.5C12.8284 6.5 13.5 7.17157 13.5 8V10.5H16C16.8284 10.5 17.5 11.1716 17.5 12C17.5 12.8284 16.8284 13.5 16 13.5H13.5V16C13.5 16.8284 12.8284 17.5 12 17.5C11.1716 17.5 10.5 16.8284 10.5 16V13.5H8C7.17157 13.5 6.5 12.8284 6.5 12C6.5 11.1716 7.17157 10.5 8 10.5H10.5V8C10.5 7.17157 11.1716 6.5 12 6.5Z" ></path>
</symbol>
<symbol viewBox="0 0 24 24" id="search">
<path fill-rule="evenodd" clip-rule="evenodd" d="M10 4.5C6.96243 4.5 4.5 6.96243 4.5 10C4.5 13.0376 6.96243 15.5 10 15.5C13.0376 15.5 15.5 13.0376 15.5 10C15.5 6.96243 13.0376 4.5 10 4.5ZM1.5 10C1.5 5.30558 5.30558 1.5 10 1.5C14.6944 1.5 18.5 5.30558 18.5 10C18.5 11.8054 17.9371 13.4793 16.9773 14.8559L22.0607 19.9393C22.6465 20.5251 22.6464 21.4749 22.0607 22.0607C21.4749 22.6465 20.5251 22.6464 19.9393 22.0607L14.856 16.9772C13.4794 17.9371 11.8054 18.5 10 18.5C5.30558 18.5 1.5 14.6944 1.5 10Z"></path>
</symbol>
<symbol viewBox="0 0 24 24" fill="none" id="settings">
<path fill-rule="evenodd" clip-rule="evenodd" d="M18 6C16.8954 6 16 6.89543 16 8C16 9.10457 16.8954 10 18 10C19.1046 10 20 9.10457 20 8C20 6.89543 19.1046 6 18 6ZM14.126 7C14.5701 5.27477 16.1362 4 18 4C20.2091 4 22 5.79086 22 8C22 10.2091 20.2091 12 18 12C16.1362 12 14.5701 10.7252 14.126 9L3 9C2.44772 9 2 8.55228 2 8C2 7.44772 2.44772 7 3 7L14.126 7ZM6 14C4.89543 14 4 14.8954 4 16C4 17.1046 4.89543 18 6 18C7.10457 18 8 17.1046 8 16C8 14.8954 7.10457 14 6 14ZM2 16C2 13.7909 3.79086 12 6 12C7.86384 12 9.42994 13.2748 9.87398 15L21 15C21.5523 15 22 15.4477 22 16C22 16.5523 21.5523 17 21 17L9.87398 17C9.42994 18.7252 7.86384 20 6 20C3.79086 20 2 18.2091 2 16Z" ></path>
</symbol>
<symbol viewBox="0 0 24 24" id="threeDots">
<path fill-rule="evenodd" clip-rule="evenodd" d="M3 12C3 10.8954 3.89543 10 5 10C6.10457 10 7 10.8954 7 12C7 13.1046 6.10457 14 5 14C3.89543 14 3 13.1046 3 12ZM10 12C10 10.8954 10.8954 10 12 10C13.1046 10 14 10.8954 14 12C14 13.1046 13.1046 14 12 14C10.8954 14 10 13.1046 10 12ZM17 12C17 10.8954 17.8954 10 19 10C20.1046 10 21 10.8954 21 12C21 13.1046 20.1046 14 19 14C17.8954 14 17 13.1046 17 12Z" ></path>
</symbol>
<symbol viewBox="0 0 24 24" id="tiktok">
<path d="M16.5999 5.82C15.9163 5.03962 15.5396 4.03743 15.5399 3H12.4499V15.4C12.4261 16.071 12.1428 16.7066 11.6597 17.1729C11.1766 17.6393 10.5314 17.8999 9.85991 17.9C8.43991 17.9 7.25991 16.74 7.25991 15.3C7.25991 13.58 8.91991 12.29 10.6299 12.82V9.66C7.17991 9.2 4.15991 11.88 4.15991 15.3C4.15991 18.63 6.91991 21 9.84991 21C12.9899 21 15.5399 18.45 15.5399 15.3V9.01C16.7929 9.90985 18.2973 10.3926 19.8399 10.39V7.3C19.8399 7.3 17.9599 7.39 16.5999 5.82Z" ></path>
</symbol>
<symbol viewBox="0 0 24 24" id="trash">
<path fill-rule="evenodd" clip-rule="evenodd" d="M11.1615 1H12.8385C13.3657 0.999983 13.8205 0.999967 14.195 1.03057C14.5904 1.06287 14.9836 1.13419 15.362 1.32698C15.9265 1.6146 16.3854 2.07354 16.673 2.63803C16.8658 3.01641 16.9371 3.40963 16.9694 3.80497C16.9969 4.14075 16.9997 4.54097 17 5H21C21.5523 5 22 5.44772 22 6C22 6.55229 21.5523 7 21 7H20V17.2413C20 18.0463 20 18.7106 19.9558 19.2518C19.9099 19.8139 19.8113 20.3306 19.564 20.816C19.1805 21.5686 18.5686 22.1805 17.816 22.564C17.3306 22.8113 16.8139 22.9099 16.2518 22.9558C15.7106 23 15.0463 23 14.2413 23H9.75868C8.95372 23 8.28936 23 7.74817 22.9558C7.18608 22.9099 6.66937 22.8113 6.18404 22.564C5.43139 22.1805 4.81947 21.5686 4.43597 20.816C4.18868 20.3306 4.09012 19.8139 4.04419 19.2518C3.99998 18.7106 3.99999 18.0463 4 17.2413L4 7H3C2.44772 7 2 6.55229 2 6C2 5.44772 2.44772 5 3 5H7.00003C7.00031 4.54097 7.00314 4.14075 7.03057 3.80497C7.06287 3.40963 7.13419 3.01641 7.32698 2.63803C7.6146 2.07354 8.07354 1.6146 8.63803 1.32698C9.01641 1.13419 9.40963 1.06287 9.80497 1.03057C10.1795 0.999967 10.6343 0.999983 11.1615 1ZM6 7V17.2C6 18.0566 6.00078 18.6389 6.03755 19.089C6.07337 19.5274 6.1383 19.7516 6.21799 19.908C6.40973 20.2843 6.71569 20.5903 7.09202 20.782C7.24842 20.8617 7.47262 20.9266 7.91104 20.9625C8.36113 20.9992 8.94342 21 9.8 21H14.2C15.0566 21 15.6389 20.9992 16.089 20.9625C16.5274 20.9266 16.7516 20.8617 16.908 20.782C17.2843 20.5903 17.5903 20.2843 17.782 19.908C17.8617 19.7516 17.9266 19.5274 17.9624 19.089C17.9992 18.6389 18 18.0566 18 17.2V7H6ZM14.9999 5H9.00007C9.00051 4.5349 9.00357 4.21698 9.02393 3.96784C9.04612 3.69617 9.0838 3.59546 9.10899 3.54601C9.20487 3.35785 9.35785 3.20487 9.54601 3.109C9.59545 3.0838 9.69617 3.04612 9.96784 3.02393C10.2512 3.00078 10.6234 3 11.2 3H12.8C13.3766 3 13.7488 3.00078 14.0322 3.02393C14.3038 3.04612 14.4045 3.0838 14.454 3.109C14.6422 3.20487 14.7951 3.35785 14.891 3.54601C14.9162 3.59546 14.9539 3.69617 14.9761 3.96784C14.9964 4.21698 14.9995 4.5349 14.9999 5ZM10 10.5C10.5523 10.5 11 10.9477 11 11.5V16.5C11 17.0523 10.5523 17.5 10 17.5C9.44772 17.5 9 17.0523 9 16.5V11.5C9 10.9477 9.44772 10.5 10 10.5ZM14 10.5C14.5523 10.5 15 10.9477 15 11.5V16.5C15 17.0523 14.5523 17.5 14 17.5C13.4477 17.5 13 17.0523 13 16.5V11.5C13 10.9477 13.4477 10.5 14 10.5Z" ></path>
</symbol>
<symbol viewBox="0 0 24 24" id="user">
<path fill-rule="evenodd" clip-rule="evenodd" d="M12 4C10.067 4 8.49996 5.567 8.49996 7.5C8.49996 9.433 10.067 11 12 11C13.933 11 15.5 9.433 15.5 7.5C15.5 5.567 13.933 4 12 4ZM6.49996 7.5C6.49996 4.46243 8.96239 2 12 2C15.0375 2 17.5 4.46243 17.5 7.5C17.5 10.5376 15.0375 13 12 13C8.96239 13 6.49996 10.5376 6.49996 7.5ZM9.32623 14.5C9.38329 14.5 9.44119 14.5 9.49997 14.5H14.5C14.5587 14.5 14.6166 14.5 14.6737 14.5C15.901 14.4995 16.739 14.4992 17.4514 14.7153C19.0494 15.2 20.2999 16.4506 20.7847 18.0486C21.0008 18.761 21.0005 19.599 21 20.8263C21 20.8833 21 20.9412 21 21C21 21.5523 20.5522 22 20 22C19.4477 22 19 21.5523 19 21C19 19.5317 18.9891 19.0192 18.8708 18.6291C18.5799 17.6703 17.8296 16.92 16.8708 16.6292C16.4808 16.5108 15.9683 16.5 14.5 16.5H9.49997C8.03164 16.5 7.51917 16.5108 7.12911 16.6292C6.1703 16.92 5.41999 17.6703 5.12914 18.6291C5.01082 19.0192 4.99996 19.5317 4.99996 21C4.99996 21.5523 4.55225 22 3.99996 22C3.44768 22 2.99996 21.5523 2.99996 21C2.99996 20.9412 2.99994 20.8833 2.99992 20.8263C2.99946 19.599 2.99915 18.761 3.21526 18.0486C3.70001 16.4506 4.95053 15.2 6.54853 14.7153C7.26094 14.4992 8.09895 14.4995 9.32623 14.5Z"></path>
</symbol>
<symbol viewBox="0 0 24 24" id="x">
<path d="M13.9408 10.392L21.5353 1.5H19.7353L13.1428 9.2205L7.87481 1.5H1.7998L9.76481 13.176L1.7998 22.5H3.5998L10.5628 14.346L16.1263 22.5H22.2013L13.9408 10.392ZM11.4763 13.278L10.6693 12.1155L4.2478 2.865H7.01231L12.1933 10.3305L13.0003 11.493L19.7368 21.198H16.9723L11.4763 13.278Z"></path>
</symbol>
<symbol viewBox="0 0 24 24" id="youtube">
<path opacity="0.3" fill-rule="evenodd" clip-rule="evenodd" d="M9.8751 0.149963H8.4501L7.5501 3.67496L6.5751 0.149963H5.2251C5.4501 0.974963 5.7501 1.79996 6.0501 2.62496C6.5001 3.89996 6.7251 4.87496 6.8751 5.47496V9.07496H8.2251V5.47496L9.8751 0.149963ZM13.4001 6.97496V4.57496C13.4001 3.82496 13.2501 3.37496 13.0251 2.99996C12.7251 2.54996 12.2001 2.32496 11.6001 2.32496C11.0001 2.32496 10.5501 2.54996 10.2501 2.99996C10.0251 3.37496 9.8751 3.82496 9.8751 4.57496V6.89996C9.8751 7.57496 10.0251 8.17496 10.2501 8.47496C10.5501 8.92496 11.0751 9.14996 11.6751 9.14996C12.2751 9.14996 12.7251 8.92496 13.1001 8.47496C13.3251 8.17496 13.4001 7.64996 13.4001 6.97496ZM12.2001 7.19996C12.2001 7.79996 12.0501 8.09996 11.6001 8.09996C11.2251 8.09996 11.0001 7.79996 11.0001 7.19996V4.34996C11.0001 3.74996 11.1501 3.44996 11.6001 3.44996C11.9751 3.44996 12.2001 3.74996 12.2001 4.34996V7.19996ZM17.9001 9.14996V2.39996H16.7001V7.49996C16.4001 7.87496 16.1751 8.09996 15.9501 8.09996C15.8001 8.09996 15.7251 8.02496 15.6501 7.79996C15.6501 7.72496 15.6501 7.64996 15.6501 7.34996V2.39996H14.4501V7.64996C14.4501 8.09996 14.5251 8.47496 14.5251 8.62496C14.6751 8.99996 14.9001 9.14996 15.2751 9.14996C15.7251 9.14996 16.1751 8.84996 16.6251 8.32496V9.07496H17.9001V9.14996Z" ></path>
<path fill-rule="evenodd" clip-rule="evenodd" d="M9.8751 0H8.4501L7.5501 3.525L6.6501 0H5.2251C5.4501 0.825 5.7501 1.65 6.0501 2.475C6.5001 3.75 6.7251 4.725 6.8751 5.325V9H8.2251V5.325L9.8751 0ZM13.4001 6.825V4.5C13.4001 3.75 13.2501 3.3 13.0251 2.925C12.7251 2.475 12.2001 2.25 11.6001 2.25C11.0001 2.25 10.5501 2.475 10.1751 2.925C9.9501 3.225 9.8751 3.75 9.8751 4.5V6.825C9.8751 7.5 10.0251 8.025 10.2501 8.4C10.5501 8.85 11.0751 9.075 11.6751 9.075C12.2751 9.075 12.7251 8.85 13.1001 8.4C13.3251 8.025 13.4001 7.5 13.4001 6.825ZM12.2001 7.05C12.2001 7.65 12.0501 7.95 11.6001 7.95C11.1501 7.95 11.0001 7.65 11.0001 7.05V4.2C11.0001 3.6 11.1501 3.3 11.6001 3.3C12.0501 3.3 12.2001 3.6 12.2001 4.2V7.05ZM17.9001 9V2.25H16.7001V7.35C16.4001 7.725 16.1751 7.95 15.9501 7.95C15.8001 7.95 15.7251 7.875 15.6501 7.65C15.6501 7.575 15.6501 7.5 15.6501 7.2V2.25H14.4501V7.5C14.4501 7.95 14.5251 8.325 14.5251 8.475C14.6751 8.85 14.9001 9 15.2751 9C15.7251 9 16.1751 8.7 16.6251 8.175V8.925H17.9001V9Z" ></path>
<path fill-rule="evenodd" clip-rule="evenodd" d="M21.5 12.375C21.275 11.325 20.375 10.575 19.325 10.425C16.85 10.125 14.375 10.125 11.9 10.125C9.425 10.125 6.95 10.125 4.475 10.425C3.425 10.575 2.6 11.325 2.3 12.375C2 13.875 2 15.525 2 17.1C2 18.675 2 20.25 2.375 21.75C2.6 22.8 3.5 23.55 4.55 23.7C6.95 24 9.425 24 11.9 24C14.375 24 16.85 24 19.325 23.7C20.375 23.55 21.2 22.8 21.5 21.75C21.875 20.25 21.875 18.6 21.875 17.025C21.875 15.45 21.875 13.875 21.5 12.375ZM7.625 13.725H6.2V21.375H4.925V13.725H3.5V12.45H7.7V13.725H7.625ZM11.3 21.375H10.1V20.625C9.65 21.15 9.2 21.45 8.75 21.45C8.375 21.45 8.075 21.3 8 20.925C7.925 20.7 7.925 20.4 7.925 19.95V14.7H9.125V19.575C9.125 19.875 9.125 20.025 9.125 20.025C9.125 20.175 9.275 20.325 9.425 20.325C9.65 20.325 9.95 20.175 10.175 19.8V14.775H11.375V21.375H11.3ZM15.8 19.425C15.8 20.025 15.725 20.475 15.65 20.775C15.5 21.3 15.2 21.525 14.675 21.525C14.225 21.525 13.85 21.3 13.4 20.775V21.45H12.2V12.525H13.4V15.45C13.775 15 14.225 14.7 14.675 14.7C15.125 14.7 15.5 14.925 15.65 15.45C15.725 15.75 15.8 16.125 15.8 16.8V19.425ZM20.375 18.3H17.975V19.5C17.975 20.1 18.2 20.4 18.575 20.4C18.875 20.4 19.025 20.25 19.1 19.95C19.1 19.875 19.1 19.65 19.1 19.125H20.3V19.275C20.3 19.65 20.3 19.95 20.3 20.025C20.225 20.325 20.15 20.55 20 20.775C19.7 21.225 19.175 21.525 18.575 21.525C17.975 21.525 17.45 21.3 17.15 20.85C16.925 20.55 16.775 20.025 16.775 19.275V16.95C16.775 16.275 16.925 15.75 17.15 15.375C17.525 14.925 17.975 14.7 18.575 14.7C19.175 14.7 19.625 14.925 20 15.375C20.225 15.675 20.375 16.2 20.375 16.95V18.3V18.3Z" ></path>
<path fill-rule="evenodd" clip-rule="evenodd" d="M14.1498 15.75C13.9248 15.75 13.7748 15.825 13.5498 16.05V20.1C13.7748 20.325 13.9248 20.4 14.1498 20.4C14.5248 20.4 14.6748 20.1 14.6748 19.5V16.65C14.5998 16.05 14.4498 15.75 14.1498 15.75Z" ></path>
<path fill-rule="evenodd" clip-rule="evenodd" d="M18.5751 15.75C18.2001 15.75 17.9751 16.05 17.9751 16.65V17.25H19.1751V16.65C19.1751 16.05 18.9501 15.75 18.5751 15.75Z" ></path>
</symbol>
</defs>
</svg>
